<?xml version="1.0" standalone="no"?>
<!DOCTYPE svg PUBLIC "-//W3C//DTD SVG 20010904//EN"
 "http://www.w3.org/TR/2001/REC-SVG-20010904/DTD/svg10.dtd">
<svg version="1.0" xmlns="http://www.w3.org/2000/svg"
 width="672.000000pt" height="672.000000pt" viewBox="0 0 672.000000 672.000000"
 preserveAspectRatio="xMidYMid meet">
<metadata>
Created by potrace 1.14, written by Peter Selinger 2001-2017
</metadata>
<g transform="translate(0.000000,672.000000) scale(0.100000,-0.100000)"
fill="#000000" stroke="none">
<path d="M1020 6704 c36 -7 106 -22 155 -33 50 -11 104 -20 122 -21 17 0 33
-4 35 -9 2 -4 39 -15 83 -24 94 -19 197 -41 315 -68 47 -10 97 -19 111 -19 40
0 57 -21 63 -75 13 -122 16 -110 -29 -107 -22 2 -89 15 -149 28 -60 13 -123
24 -140 24 -26 0 -28 -2 -16 -14 15 -13 142 -65 215 -87 22 -6 50 -15 63 -20
13 -5 32 -9 43 -9 24 0 58 -37 59 -62 0 -9 5 -18 10 -20 6 -2 12 -16 14 -31 5
-50 14 -39 12 17 0 30 2 57 5 60 14 14 37 -8 58 -54 13 -28 27 -50 32 -50 5 0
9 -5 9 -12 0 -6 9 -31 21 -55 17 -34 19 -47 9 -58 -12 -15 -6 -35 11 -35 5 0
14 10 19 23 8 20 9 21 11 2 1 -14 4 -11 9 10 7 28 8 27 9 -13 1 -55 20 -46 22
11 l2 42 7 -40 c6 -35 7 -37 9 -10 3 64 34 71 49 12 7 -26 14 -32 36 -33 22
-1 27 3 23 17 -3 11 -1 17 4 13 5 -3 9 -14 9 -25 0 -10 3 -18 8 -18 21 4 31
-3 35 -23 2 -13 2 -3 0 22 -3 25 -10 48 -16 52 -21 13 -49 9 -63 -9 -12 -16
-13 -16 -14 -2 0 9 7 20 16 23 17 7 9 29 -9 23 -6 -2 -26 10 -45 27 -27 25
-30 31 -17 38 16 10 101 -9 91 -20 -5 -5 77 -50 95 -51 4 -1 9 10 11 22 4 20
1 23 -19 21 -17 -2 -27 5 -38 26 -20 38 -19 50 3 50 16 1 16 1 0 10 -10 6 -14
18 -11 30 4 13 0 20 -9 20 -12 0 -58 85 -58 109 0 4 -9 16 -20 26 -11 10 -17
21 -15 26 3 4 0 19 -6 33 -12 26 -12 26 -30 5 -9 -11 -16 -31 -14 -44 1 -16
-3 -25 -11 -25 -8 0 -13 -9 -11 -19 3 -31 -16 -29 -27 2 -8 21 -7 30 3 36 8 5
11 13 7 19 -3 6 3 27 15 48 26 47 28 93 4 110 -10 8 -16 17 -12 21 4 3 -4 21
-18 38 -13 18 -21 35 -18 39 4 3 1 6 -5 6 -7 0 -11 3 -10 8 1 4 -4 19 -10 33
-10 26 -12 27 -117 28 -105 2 -106 2 -104 -21 1 -13 1 -35 1 -50 -2 -31 1 -31
-132 -2 -353 78 -316 73 -575 72 -228 0 -237 -1 -175 -14z m996 -130 c7 -23
17 -51 23 -61 10 -20 47 -206 58 -291 3 -23 2 -50 -2 -60 -6 -16 -7 -16 -21 2
-11 15 -11 22 -2 27 15 10 2 64 -58 245 -48 144 -55 187 -27 182 10 -2 22 -20
29 -44z m154 -4 c0 -5 -4 -10 -10 -10 -5 0 -10 5 -10 10 0 6 5 10 10 10 6 0
10 -4 10 -10z m-1 -282 c11 -31 2 -108 -13 -108 -19 0 -36 22 -36 47 0 13 6
23 13 23 9 0 12 10 9 30 -5 36 14 41 27 8z m-19 -208 c0 -5 -4 -10 -9 -10 -6
0 -13 5 -16 10 -3 6 1 10 9 10 9 0 16 -4 16 -10z"/>
<path d="M4340 6700 c79 -22 114 -30 220 -54 36 -8 83 -20 105 -26 22 -6 60
-16 84 -21 25 -5 59 -13 75 -18 17 -6 63 -17 101 -27 39 -9 105 -30 148 -47
91 -35 65 -40 302 55 180 72 202 81 285 122 l65 31 -89 3 c-77 2 -101 -1 -170
-25 -45 -15 -82 -31 -84 -35 -2 -5 -8 -8 -14 -8 -6 0 -41 -14 -77 -31 -146
-70 -142 -70 -303 -33 -79 18 -206 49 -283 68 -77 20 -149 36 -160 36 -12 0
-26 5 -31 10 -6 6 -64 13 -130 15 l-119 5 75 -20z"/>
<path d="M6155 6709 c-4 -6 -5 -12 -2 -15 2 -3 7 2 10 11 7 17 1 20 -8 4z"/>
<path d="M6209 6713 c-1 -5 -3 -18 -4 -29 -1 -12 -5 -26 -9 -32 -3 -6 -2 -13
4 -17 10 -6 15 13 12 48 -1 9 3 17 8 17 6 0 10 5 10 10 0 12 -19 14 -21 3z"/>
<path d="M6247 6678 c-12 -31 -14 -45 -6 -55 9 -10 7 -13 -7 -13 -11 0 -15 -3
-9 -8 6 -4 16 -18 22 -32 l12 -25 0 26 c1 14 8 34 16 45 8 10 14 26 15 34 0
13 -2 13 -11 0 -9 -12 -10 -12 -5 3 17 53 18 67 4 67 -8 0 -22 -19 -31 -42z"/>
<path d="M2962 6690 c0 -14 2 -19 5 -12 2 6 2 18 0 25 -3 6 -5 1 -5 -13z"/>
<path d="M62 6688 c2 -6 51 -29 109 -51 57 -21 109 -42 114 -47 6 -4 29 -11
53 -15 26 -4 42 -12 42 -21 0 -10 14 -14 55 -14 29 0 80 -7 112 -15 31 -8 78
-18 103 -21 25 -3 53 -8 64 -11 10 -3 64 -7 120 -9 55 -2 108 -4 116 -5 8 -1
46 -1 85 -1 59 2 67 4 55 16 -8 7 -53 21 -100 30 -47 9 -101 21 -120 26 -69
19 -764 150 -793 150 -10 0 -17 -5 -15 -12z"/>
<path d="M3970 6688 c3 -3 21 -10 40 -17 19 -6 30 -7 25 -2 -6 5 -23 13 -40
17 -16 4 -28 5 -25 2z"/>
<path d="M2533 6645 c0 -22 2 -30 4 -17 2 12 2 30 0 40 -3 9 -5 -1 -4 -23z"/>
<path d="M5965 6640 c-3 -5 -1 -10 4 -10 6 0 11 5 11 10 0 6 -2 10 -4 10 -3 0
-8 -4 -11 -10z"/>
<path d="M6161 6624 c0 -11 3 -14 6 -6 3 7 2 16 -1 19 -3 4 -6 -2 -5 -13z"/>
<path d="M4295 6600 c3 -5 11 -10 16 -10 6 0 7 5 4 10 -3 6 -11 10 -16 10 -6
0 -7 -4 -4 -10z"/>
<path d="M2547 6550 c3 -11 7 -20 9 -20 2 0 4 9 4 20 0 11 -4 20 -9 20 -5 0
-7 -9 -4 -20z"/>
<path d="M2306 6537 c-7 -23 -3 -32 30 -61 48 -43 103 -64 115 -45 5 8 9 26 9
40 0 27 -15 39 -48 39 -38 0 -91 22 -95 38 -3 12 -6 10 -11 -11z"/>
<path d="M6122 6510 c1 -16 5 -30 10 -30 4 0 8 -5 8 -11 0 -6 -9 -9 -19 -6
-18 4 -31 -10 -31 -34 0 -14 46 -11 58 4 15 19 26 61 14 53 -12 -7 -26 29 -17
44 3 5 -1 10 -9 10 -10 0 -14 -10 -14 -30z"/>
<path d="M6236 6514 c-4 -14 -5 -28 -3 -31 3 -2 8 8 11 23 4 14 5 28 3 31 -3
2 -8 -8 -11 -23z"/>
<path d="M2560 6510 c0 -5 5 -10 11 -10 5 0 7 5 4 10 -3 6 -8 10 -11 10 -2 0
-4 -4 -4 -10z"/>
<path d="M18 6483 c-15 -4 -17 -21 -17 -138 -1 -118 1 -134 17 -139 9 -3 85
-17 167 -31 233 -40 436 -76 480 -85 41 -8 266 -45 365 -60 147 -23 250 -40
295 -49 70 -15 241 -50 300 -62 28 -6 70 -11 95 -12 25 -1 47 -5 50 -8 5 -6
91 -23 280 -54 47 -7 100 -17 118 -21 17 -3 32 -3 32 1 0 22 -46 66 -84 80
-44 17 -56 34 -56 83 0 12 5 22 11 22 6 0 5 5 -3 13 -7 7 -24 29 -37 48 -19
29 -30 35 -60 36 -20 1 -92 12 -161 26 -69 14 -143 29 -165 33 -22 4 -42 8
-45 9 -3 1 -39 7 -80 15 -41 8 -77 14 -80 15 -3 1 -30 5 -60 9 -30 5 -104 19
-165 33 -60 14 -126 27 -145 30 -90 12 -405 75 -421 84 -11 5 -23 8 -27 6 -4
-3 -29 -1 -57 5 -27 5 -72 13 -100 18 -27 6 -77 14 -110 20 -33 5 -82 15 -110
20 -27 6 -69 13 -92 16 -24 4 -43 11 -43 15 0 5 -19 9 -42 9 -32 0 -39 3 -28
10 15 10 8 11 -22 3z m146 -145 c-7 -12 -44 -10 -44 2 0 5 11 9 24 8 14 -1 22
-6 20 -10z m136 -12 c0 -9 -30 -14 -35 -6 -4 6 3 10 14 10 12 0 21 -2 21 -4z
m120 -32 c0 -2 -7 -4 -15 -4 -8 0 -15 4 -15 10 0 5 7 7 15 4 8 -4 15 -8 15
-10z m-295 -4 c3 -6 -4 -10 -17 -10 -18 0 -20 2 -8 10 19 12 18 12 25 0z m48
3 c-7 -2 -19 -2 -25 0 -7 3 -2 5 12 5 14 0 19 -2 13 -5z m350 -15 c4 -13 0
-18 -16 -18 -18 0 -19 2 -7 11 12 8 12 10 -5 8 -33 -2 -45 0 -45 11 0 5 15 9
34 8 24 -1 36 -7 39 -20z m-130 -19 c32 0 57 -5 57 -11 0 -12 -130 -1 -144 12
-4 4 -5 13 -1 20 5 8 10 6 19 -5 8 -12 28 -16 69 -16z m311 -8 c4 -5 -3 -7
-14 -4 -23 6 -26 13 -6 13 8 0 17 -4 20 -9z m60 -14 c-6 -16 10 -19 89 -19 31
0 57 -4 57 -9 0 -5 -6 -9 -14 -9 -8 0 -16 -5 -18 -11 -6 -19 -105 9 -135 37
l-26 24 26 0 c18 0 25 -4 21 -13z m-139 -43 c19 -15 19 -15 -9 -12 -16 2 -31
9 -34 16 -5 17 19 15 43 -4z m410 -8 c18 -8 36 -12 39 -9 3 3 13 2 23 -2 10
-4 44 -7 76 -8 32 0 53 -3 47 -7 -6 -4 17 -10 52 -14 35 -4 81 -9 103 -12 50
-6 137 -32 111 -33 -13 -1 -17 -4 -10 -11 5 -5 20 -7 33 -3 17 4 19 8 9 14
-21 14 24 11 55 -3 31 -15 35 -28 10 -28 -12 0 -9 -5 11 -15 15 -8 36 -14 45
-14 14 1 13 2 -1 6 -19 5 -25 43 -8 43 6 0 10 -4 10 -10 0 -5 15 -12 34 -16
23 -4 33 -10 30 -19 -3 -7 4 -16 15 -20 27 -8 16 -27 -12 -24 -12 2 -32 -1
-45 -5 -13 -4 -28 -3 -35 2 -7 5 -46 12 -87 16 -41 4 -77 10 -80 15 -3 4 -28
8 -56 8 -28 0 -60 6 -72 12 -11 6 -32 11 -46 11 -14 0 -28 5 -31 10 -3 6 -25
10 -48 10 -51 0 -147 28 -107 30 21 2 22 3 5 7 -11 3 -24 12 -28 20 -6 10 -17
13 -33 9 -17 -5 -23 -2 -22 6 2 9 -10 13 -37 14 -76 1 -83 4 -50 19 39 18 58
18 100 1z m-9 -71 c18 -13 18 -14 -4 -8 -12 3 -25 9 -28 14 -8 14 10 11 32 -6z
m744 -65 c0 -5 17 -10 38 -10 20 0 48 -3 62 -7 l25 -7 -25 -7 c-22 -6 -20 -7
12 -8 20 -1 38 3 40 7 2 5 17 0 33 -10 l30 -19 -51 6 c-28 3 -62 1 -75 -4 -23
-9 -22 -10 9 -10 17 -1 32 -6 32 -12 0 -8 -18 -10 -61 -5 -73 7 -79 10 -79 41
0 13 -5 27 -10 30 -12 7 -4 25 11 25 5 0 9 -4 9 -10z m241 -47 c13 -15 12 -15
-8 -4 -24 12 -29 21 -14 21 5 0 15 -7 22 -17z m-68 -42 c-4 -17 25 -13 35 4 7
13 14 14 35 6 45 -17 34 -41 -17 -41 -58 0 -76 8 -76 32 0 11 5 18 13 15 6 -2
11 -10 10 -16z"/>
<path d="M1145 6130 c3 -5 8 -10 11 -10 2 0 4 5 4 10 0 6 -5 10 -11 10 -5 0
-7 -4 -4 -10z"/>
<path d="M1350 6075 c7 -8 17 -12 22 -9 6 4 5 10 -3 15 -22 14 -33 10 -19 -6z"/>
<path d="M1533 6033 c15 -2 37 -2 50 0 12 2 0 4 -28 4 -27 0 -38 -2 -22 -4z"/>
<path d="M225 6480 c-13 -6 -1 -7 35 -3 30 3 57 7 59 9 9 8 -75 2 -94 -6z"/>
<path d="M2574 6476 c-8 -22 20 -80 51 -104 12 -10 24 -25 28 -35 4 -10 20
-25 37 -35 16 -9 30 -22 30 -28 0 -15 35 -45 43 -37 4 3 13 -2 21 -12 7 -10
18 -15 24 -11 13 8 17 96 5 96 -5 0 -8 21 -8 46 -1 38 -5 50 -28 68 -15 12
-27 27 -27 34 0 7 -8 12 -17 12 -15 0 -16 -2 -3 -10 11 -7 4 -10 -27 -10 -24
0 -43 5 -43 10 0 6 -13 8 -29 5 -22 -4 -33 0 -40 12 -9 17 -10 17 -17 -1z
m172 -149 c8 3 14 3 14 0 0 -14 -30 -14 -41 1 -11 14 -11 15 0 5 7 -6 20 -9
27 -6z m44 -62 c0 -8 -4 -15 -10 -15 -5 0 -10 7 -10 15 0 8 5 15 10 15 6 0 10
-7 10 -15z"/>
<path d="M148 6473 c6 -2 18 -2 25 0 6 3 1 5 -13 5 -14 0 -19 -2 -12 -5z"/>
<path d="M1318 6473 c7 -3 16 -2 19 1 4 3 -2 6 -13 5 -11 0 -14 -3 -6 -6z"/>
<path d="M5957 6463 c-4 -3 -7 -11 -7 -17 0 -6 5 -5 12 2 6 6 9 14 7 17 -3 3
-9 2 -12 -2z"/>
<path d="M6389 6453 c-6 -7 -8 -20 -5 -29 5 -14 16 -16 74 -10 110 11 113 41
4 48 -44 3 -66 0 -73 -9z"/>
<path d="M263 6453 c15 -2 39 -2 55 0 15 2 2 4 -28 4 -30 0 -43 -2 -27 -4z"/>
<path d="M378 6453 c7 -3 16 -2 19 1 4 3 -2 6 -13 5 -11 0 -14 -3 -6 -6z"/>
<path d="M3900 6426 c0 -12 10 -16 44 -16 63 0 119 -25 111 -50 -4 -14 1 -23
22 -34 15 -8 21 -15 13 -16 -26 -1 11 -20 40 -20 14 0 45 -9 69 -20 37 -17 42
-22 31 -35 -10 -12 -10 -19 -2 -27 20 -20 14 -28 -19 -28 -17 0 -44 -10 -61
-21 -22 -16 -32 -19 -41 -10 -8 8 -5 11 11 11 23 0 27 15 16 58 -7 24 -39 30
-47 10 -4 -10 -6 -10 -6 0 -1 7 -17 12 -45 12 -26 0 -46 -5 -49 -12 -3 -10
-13 -8 -38 6 -29 17 -32 17 -20 3 12 -15 10 -17 -15 -18 l-29 -1 30 -9 c17 -5
39 -7 50 -4 24 5 65 -4 65 -15 0 -4 -9 -10 -20 -13 -11 -3 -18 -2 -15 3 2 4
-26 10 -63 14 -66 7 -122 26 -76 26 11 0 28 6 37 13 15 10 13 12 -18 13 -19 0
-35 -3 -35 -7 0 -4 -10 -5 -22 -2 -22 4 -23 4 -4 -11 20 -16 20 -16 0 -16 -12
0 -24 3 -28 8 -4 4 -17 8 -29 8 -12 1 -53 7 -92 13 -157 25 -169 22 -117 -25
31 -30 158 -94 185 -94 21 0 59 -18 69 -33 4 -7 11 -7 21 2 10 8 17 9 22 1 3
-5 -1 -10 -9 -10 -11 0 -13 -8 -9 -37 3 -21 6 -39 7 -39 1 -1 23 -4 49 -6 26
-3 45 -3 42 0 -9 9 55 32 91 32 47 0 46 -26 -1 -27 -35 -1 -65 -21 -65 -44 0
-8 7 -6 19 5 22 20 111 29 112 12 4 -54 19 -71 19 -22 0 22 4 35 10 31 6 -3
10 -17 10 -31 0 -14 6 -24 14 -24 7 0 16 -10 20 -22 9 -35 8 -36 -19 -33 -15
1 -25 -3 -25 -10 0 -7 -7 -16 -16 -19 -11 -4 -15 -2 -11 8 6 16 -16 12 -40 -7
-7 -5 -22 -7 -34 -4 -17 4 -18 3 -8 -9 17 -20 5 -28 -21 -14 -16 9 -20 17 -15
33 20 67 20 64 -8 37 -27 -26 -35 -54 -17 -65 6 -4 9 -14 8 -23 -2 -12 5 -18
25 -20 15 -2 27 -8 27 -13 0 -5 14 -9 30 -9 17 0 30 -5 30 -12 0 -7 8 -22 17
-33 13 -16 15 -17 10 -2 -4 11 -1 17 7 17 8 0 16 -6 19 -12 2 -7 8 -9 13 -5 5
4 2 12 -6 17 -12 8 -11 10 5 10 11 0 32 6 46 14 25 13 27 12 40 -21 7 -19 21
-39 31 -44 25 -13 30 -11 20 9 -5 9 -12 34 -15 54 -5 35 -4 36 13 26 14 -9 17
-20 14 -42 -4 -28 -3 -28 5 -8 6 12 16 22 23 22 9 0 9 -3 -2 -10 -12 -8 -12
-11 3 -28 9 -10 17 -23 17 -28 0 -5 -5 -2 -11 6 -9 13 -10 13 -6 0 2 -8 10
-15 18 -16 8 0 23 -4 33 -9 13 -6 21 -5 24 3 5 16 22 15 22 0 -1 -20 -49 -51
-71 -45 -14 4 -23 -1 -29 -16 l-9 -22 0 21 c-1 12 -8 28 -18 35 -15 13 -16 9
-10 -42 5 -52 3 -57 -17 -67 -24 -11 -88 -3 -121 15 -37 20 -86 20 -99 -1 -8
-14 -8 -20 2 -23 6 -3 10 -9 6 -14 -3 -5 2 -9 11 -9 11 0 15 -5 11 -15 -3 -8
2 -21 10 -30 9 -8 11 -15 5 -15 -6 0 -8 -7 -5 -15 4 -8 17 -15 30 -15 24 0 32
-14 14 -25 -15 -9 -12 -25 5 -25 8 0 15 -9 15 -19 0 -11 5 -23 10 -26 6 -3 10
-15 10 -26 0 -11 6 -22 13 -24 6 -3 13 -19 14 -37 1 -17 9 -38 18 -48 8 -9 15
-21 15 -27 0 -6 7 -16 15 -23 8 -7 13 -16 10 -20 -2 -4 4 -15 15 -25 18 -17
23 -17 84 -1 78 19 76 19 76 3 0 -7 -21 -19 -47 -26 -50 -15 -66 -28 -55 -46
3 -5 8 -18 9 -28 2 -10 12 -38 23 -62 11 -24 20 -50 20 -58 0 -7 9 -23 20 -35
11 -12 20 -31 20 -44 0 -32 15 -52 30 -43 10 6 12 2 8 -13 -8 -28 -7 -27 27 4
l29 26 -22 106 c-12 58 -20 107 -18 110 3 2 8 -12 11 -32 4 -20 11 -38 15 -41
4 -2 13 -31 21 -64 l13 -60 60 5 c41 4 75 1 102 -9 l41 -15 11 32 c19 52 16
61 -20 61 -23 0 -33 5 -33 15 0 11 11 15 43 13 23 -1 42 -1 42 0 0 1 16 47 36
102 35 101 37 95 9 -25 -9 -36 -18 -76 -21 -90 -3 -14 -8 -32 -11 -40 -4 -8
-7 -17 -8 -20 -1 -3 -5 -13 -10 -23 -4 -10 -5 -21 -1 -24 3 -4 6 1 6 9 0 9 5
18 10 20 6 2 12 12 14 23 8 38 38 88 46 75 4 -7 18 12 35 47 15 32 36 75 46
96 11 22 19 48 19 59 0 11 5 16 10 13 7 -4 9 2 4 19 -5 20 -2 26 11 26 12 0
15 5 10 20 -4 13 -1 22 9 26 9 3 16 11 16 16 0 9 -19 7 -87 -9 -16 -3 -23 -1
-23 9 0 9 23 21 56 32 47 15 58 16 66 4 8 -10 9 -9 4 4 -3 11 3 23 16 32 12 9
17 19 13 27 -5 7 -1 17 10 25 10 7 15 20 12 29 -4 9 -1 15 8 15 9 0 15 10 15
24 0 13 6 26 14 29 9 4 12 14 9 26 -4 15 -1 21 11 21 12 0 15 6 10 25 -5 19
-2 25 11 25 12 0 15 5 10 19 -4 14 0 21 14 26 13 4 18 11 14 22 -4 9 1 21 11
29 10 7 15 18 11 24 -4 7 1 13 12 16 15 4 19 12 15 30 -3 17 0 24 12 24 12 0
15 6 10 25 -5 20 -2 25 14 25 15 0 18 5 14 25 -3 18 0 25 12 25 19 0 21 11 4
28 -9 9 -6 14 13 21 13 5 21 11 17 12 -5 1 -12 3 -18 4 -5 1 -13 3 -18 4 -4 0
-13 14 -20 30 -11 26 -17 29 -45 25 -18 -2 -45 -6 -62 -8 -24 -2 -30 -7 -28
-25 2 -13 -1 -20 -7 -16 -6 3 -10 15 -10 26 0 10 -4 19 -10 19 -5 0 -10 -14
-10 -32 0 -17 -3 -28 -7 -24 -4 3 -13 -6 -20 -21 -13 -27 -13 -27 -8 -3 2 14
5 33 5 43 0 10 5 15 10 12 6 -4 10 7 9 27 -1 40 10 99 21 113 15 18 19 105 6
130 -31 60 -72 -53 -68 -185 2 -65 -32 -210 -50 -210 -4 0 -8 -8 -8 -17 0 -13
-3 -14 -12 -5 -7 7 -35 12 -64 12 -37 0 -54 4 -58 15 -3 8 -12 15 -20 15 -9 0
-31 7 -50 16 -30 15 -39 15 -77 2 -32 -10 -71 -12 -144 -8 -55 3 -106 3 -114
-1 -19 -9 -70 12 -76 32 -5 14 -18 16 -79 14 -63 -2 -73 0 -68 13 3 10 1 13
-6 8 -8 -5 -10 3 -7 26 5 27 4 30 -5 13 -9 -16 -9 -14 -5 14 3 18 5 39 5 46 0
16 74 65 99 65 20 0 41 27 41 52 0 11 -17 14 -69 14 -43 -1 -75 4 -82 12 -11
10 -10 12 4 12 9 0 17 4 17 10 0 5 8 9 18 8 55 -4 62 1 62 42 0 39 1 40 40 46
22 4 40 12 40 18 0 7 9 12 21 13 39 3 111 36 97 44 -9 6 -3 10 20 15 17 4 32
10 32 14 0 12 -148 27 -189 20 -35 -6 -112 11 -135 29 -6 5 -37 9 -69 10 -33
0 -63 3 -67 6 -5 3 -26 7 -47 9 -21 3 -59 8 -85 12 -41 6 -48 4 -48 -10z m223
-33 c-7 -2 -21 -2 -30 0 -10 3 -4 5 12 5 17 0 24 -2 18 -5z m180 -80 c-13 -2
-33 -2 -45 0 -13 2 -3 4 22 4 25 0 35 -2 23 -4z m77 -9 c0 -2 -9 -4 -21 -4
-11 0 -18 4 -14 10 5 8 35 3 35 -6z m-40 -28 c0 -3 -4 -8 -10 -11 -5 -3 -10
-1 -10 4 0 6 5 11 10 11 6 0 10 -2 10 -4z m-260 -111 c0 -9 -6 -12 -15 -9 -8
4 -12 10 -9 15 8 14 24 10 24 -6z m17 -112 c-3 -10 -5 -4 -5 12 0 17 2 24 5
18 2 -7 2 -21 0 -30z m-67 -3 c0 -5 -4 -10 -9 -10 -6 0 -13 5 -16 10 -3 6 1
10 9 10 9 0 16 -4 16 -10z m40 0 c0 -5 -7 -10 -15 -10 -8 0 -15 5 -15 10 0 6
7 10 15 10 8 0 15 -4 15 -10z m130 -35 c0 -3 -9 -5 -20 -5 -11 0 -20 7 -20 15
0 13 4 14 20 5 11 -6 20 -13 20 -15z m-110 -6 c0 -5 -4 -9 -10 -9 -5 0 -10 7
-10 16 0 8 5 12 10 9 6 -3 10 -10 10 -16z m87 -31 c-3 -8 -6 -5 -6 6 -1 11 2
17 5 13 3 -3 4 -12 1 -19z m870 -180 c-3 -8 -6 -5 -6 6 -1 11 2 17 5 13 3 -3
4 -12 1 -19z m-722 -18 c3 -5 -1 -10 -10 -10 -9 0 -13 5 -10 10 3 6 8 10 10
10 2 0 7 -4 10 -10z m113 -8 c2 -7 -3 -12 -12 -12 -9 0 -16 7 -16 16 0 17 22
14 28 -4z m-293 -12 c3 -5 -1 -10 -9 -10 -9 0 -16 5 -16 10 0 6 4 10 9 10 6 0
13 -4 16 -10z m255 -6 c0 -2 -19 -3 -42 -3 -39 1 -41 2 -13 8 28 7 55 4 55 -5z
m-290 -4 c0 -5 -4 -10 -10 -10 -5 0 -10 5 -10 10 0 6 5 10 10 10 6 0 10 -4 10
-10z m598 -435 c2 -13 -8 -28 -27 -43 -29 -21 -31 -21 -60 -4 -29 16 -41 49
-24 66 4 4 30 6 58 4 41 -3 50 -6 53 -23z m137 -114 c-6 -4 -23 -12 -40 -15
-29 -7 -29 -7 -10 8 21 16 66 23 50 7z m-397 -206 c-3 -3 -9 2 -12 12 -6 14
-5 15 5 6 7 -7 10 -15 7 -18z m-18 -219 c0 -3 -4 -8 -10 -11 -5 -3 -10 -1 -10
4 0 6 5 11 10 11 6 0 10 -2 10 -4z"/>
<path d="M6201 6418 c0 -10 -10 -27 -21 -38 -11 -11 -20 -26 -20 -33 0 -7 -5
-18 -12 -25 -7 -7 -9 -12 -6 -12 4 0 14 7 23 16 12 13 19 13 30 4 17 -14 45 8
45 36 0 17 -1 17 -13 -1 -19 -25 -41 -11 -26 16 5 11 8 28 6 37 -4 16 -5 16
-6 0z"/>
<path d="M5078 6413 c7 -3 16 -2 19 1 4 3 -2 6 -13 5 -11 0 -14 -3 -6 -6z"/>
<path d="M6031 6404 c0 -11 3 -14 6 -6 3 7 2 16 -1 19 -3 4 -6 -2 -5 -13z"/>
<path d="M2904 6366 c-8 -22 5 -106 16 -106 5 0 7 -6 4 -14 -9 -24 53 -153
103 -214 62 -76 116 -116 144 -107 20 7 21 12 16 72 -2 35 -11 72 -18 81 -8 9
-23 33 -33 52 -51 93 -85 138 -103 136 -10 -2 -12 -1 -5 1 16 6 15 10 -8 43
-36 50 -105 84 -116 56z m50 -88 c-7 -11 -34 -10 -34 1 0 6 9 9 19 8 11 0 17
-5 15 -9z m119 -155 c-7 -2 -19 -2 -25 0 -7 3 -2 5 12 5 14 0 19 -2 13 -5z"/>
<path d="M3020 6351 c0 -22 15 -35 30 -26 7 4 7 13 0 26 -14 25 -30 25 -30 0z"/>
<path d="M6656 6363 c-4 -5 -11 -8 -14 -8 -4 -1 -16 -6 -27 -12 -11 -6 -65
-21 -120 -33 -55 -13 -110 -30 -122 -38 -12 -7 -27 -11 -34 -7 -6 4 -23 -2
-38 -12 -28 -21 -70 -32 -136 -36 -37 -2 -40 0 -37 23 2 14 8 27 13 28 5 2 9
11 9 19 0 13 -3 13 -15 3 -8 -7 -15 -20 -15 -29 0 -23 -78 -146 -92 -146 -7 0
-14 -9 -16 -20 -3 -20 -23 -66 -32 -75 -3 -3 -11 -16 -17 -30 -7 -14 -26 -47
-43 -75 -16 -27 -33 -57 -37 -65 -4 -8 -24 -43 -45 -78 -21 -34 -38 -64 -38
-67 0 -14 -146 -208 -173 -230 -17 -15 -40 -33 -49 -41 -10 -7 -18 -23 -18
-35 0 -24 -68 -191 -82 -200 -4 -3 -3 -19 2 -36 10 -29 4 -74 -26 -175 -3 -10
10 -2 29 17 41 41 55 43 66 13 10 -28 -1 -56 -48 -123 -53 -77 -102 -125 -128
-125 -16 0 -30 -13 -49 -47 -15 -27 -36 -58 -45 -71 -10 -13 -18 -40 -18 -60
1 -72 -77 -336 -105 -357 -16 -12 -24 -57 -33 -177 -4 -67 -9 -88 -20 -88 -9
0 -12 -6 -8 -18 7 -23 -36 -69 -72 -78 -30 -8 -35 -3 -42 43 l-6 38 -19 -40
c-11 -22 -36 -74 -56 -117 -37 -75 -37 -76 -16 -82 11 -3 42 -6 69 -6 26 0 47
-4 47 -10 0 -5 -32 -9 -77 -7 l-78 2 -22 -43 c-13 -24 -24 -56 -25 -71 -1 -19
-7 -27 -15 -24 -7 3 -13 1 -13 -5 0 -5 7 -13 16 -16 12 -5 13 -8 2 -20 -14
-15 -32 -11 -23 5 3 5 -2 6 -11 2 -11 -4 -15 -3 -11 4 4 6 1 14 -5 17 -10 5
-10 7 0 12 6 3 12 9 12 13 0 11 -36 51 -41 46 -3 -2 -11 6 -18 18 -13 20 -13
21 2 9 9 -8 21 -11 27 -7 5 3 10 1 10 -6 0 -7 3 -10 6 -6 3 3 1 14 -4 23 -8
14 -6 21 6 31 14 10 15 13 2 13 -8 1 -23 3 -32 5 -11 2 -31 -14 -53 -41 -21
-25 -41 -41 -47 -37 -8 4 -9 0 -5 -11 4 -10 7 -130 7 -267 0 -209 2 -249 14
-249 8 0 22 7 31 16 13 14 21 15 41 5 36 -16 67 -14 60 4 -3 8 1 20 8 27 9 9
10 19 3 38 -11 29 -1 100 13 100 12 0 14 -373 3 -384 -4 -4 -8 -46 -8 -94 -1
-48 -6 -96 -13 -107 -10 -17 -11 -18 -12 -2 0 9 4 17 8 17 4 0 6 17 3 38 l-5
37 -6 -34 c-3 -19 -11 -36 -18 -37 -7 -1 -8 0 -2 3 5 2 10 17 9 31 0 24 -1 25
-9 7 -6 -14 -9 -16 -11 -5 -1 8 -5 -3 -9 -25 -3 -23 -9 -34 -12 -25 -17 45
-32 107 -30 118 2 8 -1 19 -6 25 -5 7 -13 34 -17 61 -5 36 -9 46 -16 35 -7
-10 -8 -4 -4 18 3 17 2 34 -3 37 -5 3 -12 -28 -15 -72 -10 -123 -12 -1080 -3
-1071 3 3 16 57 30 122 14 65 35 157 46 205 12 48 25 107 31 132 6 25 14 61
19 80 5 19 19 78 31 130 24 105 37 137 49 124 4 -5 26 -65 48 -133 30 -92 42
-118 47 -102 3 11 3 30 0 41 -6 17 -2 20 29 20 38 0 45 -10 21 -30 -9 -7 -15
-29 -15 -51 0 -45 22 -169 30 -169 5 0 10 16 51 198 12 56 27 101 33 99 5 -2
20 -34 33 -72 12 -37 25 -70 27 -73 3 -2 26 13 51 34 40 34 46 43 42 69 -5 30
7 65 22 65 4 0 12 -14 17 -31 l9 -31 45 40 c25 21 65 53 90 71 84 59 181 121
188 121 19 0 164 -215 220 -325 96 -189 132 -341 132 -547 -1 -215 -64 -448
-166 -610 -36 -57 -27 -73 43 -74 131 -3 202 -1 197 7 -2 4 12 10 32 14 34 6
72 22 84 36 3 3 21 15 40 27 31 18 47 31 107 82 7 5 17 10 23 10 6 0 8 4 5 10
-3 5 1 10 9 10 8 0 18 5 22 12 5 7 3 8 -6 3 -20 -12 -72 -8 -81 7 -6 10 -36
12 -116 11 -119 -3 -204 12 -196 34 4 10 25 12 96 8 84 -6 92 -4 107 15 l16
21 46 -20 c32 -13 59 -18 82 -14 22 3 42 1 50 -6 12 -10 20 -9 40 4 14 10 26
24 26 31 0 8 3 14 8 14 4 0 12 10 17 22 7 17 23 26 62 33 29 6 54 14 55 20 2
5 -40 17 -92 25 -52 9 -100 19 -106 23 -7 4 -69 16 -140 27 -146 24 -194 38
-194 58 0 8 7 11 18 8 9 -3 116 1 237 9 121 8 271 18 332 22 97 5 111 8 101
20 -10 12 -8 14 8 11 19 -3 19 8 22 508 l2 511 -82 8 c-46 3 -105 11 -133 16
-27 5 -149 16 -270 24 -315 20 -504 36 -552 45 -40 7 -42 6 -48 -21 -8 -36
-23 -46 -33 -22 -9 22 -42 27 -42 6 0 -31 -25 -4 -28 30 -4 41 -22 51 -22 13
0 -31 -24 -50 -54 -42 -25 6 -34 38 -28 104 3 32 4 33 45 30 40 -3 42 -5 39
-31 -2 -18 1 -26 7 -22 6 3 11 17 11 31 0 24 1 24 70 19 92 -8 128 9 39 19
-35 3 -77 9 -94 11 -16 3 -57 9 -90 14 -52 7 -42 9 79 10 127 1 170 8 99 17
-86 10 -166 23 -171 28 -3 3 73 7 169 7 151 2 165 3 109 11 -36 5 -101 15
-145 23 l-80 13 169 1 c93 0 167 4 164 7 -4 3 -72 12 -154 20 -81 7 -149 16
-152 19 -3 3 87 5 199 6 223 1 234 13 22 25 -68 4 -126 11 -129 15 -3 5 100
10 228 11 248 1 232 10 -45 24 -76 4 -140 11 -143 15 -3 5 48 9 113 10 65 0
136 3 158 8 l40 7 -55 7 c-30 4 -85 7 -122 7 -46 0 -70 4 -75 14 -4 7 -15 16
-23 19 -8 3 44 6 115 8 l130 2 -125 7 c-159 9 -230 19 -230 32 0 6 -6 6 -14
-1 -12 -10 -19 -5 -38 28 -13 23 -29 41 -35 41 -8 0 -13 15 -13 39 0 22 -4 41
-8 43 -5 1 -1 21 9 43 l18 40 1 -42 c0 -33 4 -43 16 -43 13 0 15 9 12 45 -2
36 0 45 12 45 9 0 20 4 26 10 17 17 70 21 288 27 131 3 233 0 273 -7 53 -9 68
-8 94 6 38 19 189 24 210 7 16 -13 97 -23 201 -26 l68 -2 0 72 0 73 -222 -1
c-248 -1 -361 -1 -398 -2 -14 -1 -96 3 -182 7 -113 6 -158 5 -158 -3 0 -14
-117 -15 -125 0 -5 6 -11 5 -18 -5 -8 -10 -20 -14 -34 -10 -20 5 -23 13 -23
53 0 28 -8 58 -19 77 -10 17 -21 51 -23 75 -3 44 -3 44 32 45 18 1 36 6 38 13
2 6 11 11 20 11 11 0 18 9 18 25 2 30 -26 37 -131 33 -59 -3 -70 0 -73 14 -4
19 23 33 74 41 16 2 36 6 44 9 26 10 152 36 230 48 41 6 102 15 135 21 33 5
78 11 100 14 22 4 114 17 205 30 91 14 182 25 203 25 40 0 51 16 15 23 l-23 4
23 2 c15 0 21 5 16 12 -5 9 7 10 44 7 58 -6 85 5 77 31 -6 20 5 26 103 57 l52
16 0 642 0 643 -57 -4 c-32 -2 -77 -8 -100 -13 -23 -6 -68 -10 -101 -10 -72 0
-119 -32 -114 -76 5 -32 -47 -84 -83 -84 -13 0 -25 -5 -27 -11 -2 -6 -13 -3
-28 9 l-24 19 24 13 c46 25 54 38 39 66 -7 14 -12 36 -11 50 1 19 -3 24 -23
24 -13 0 -28 -8 -34 -17 -8 -16 -10 -14 -16 10 -4 15 -11 25 -15 22 -10 -6
-23 45 -14 54 4 3 9 1 11 -6 2 -7 11 -9 19 -6 12 4 10 9 -7 24 -21 18 -21 18
23 29 24 7 70 20 103 31 78 26 135 34 135 21 0 -14 -27 -23 -47 -15 -10 3 -14
2 -10 -2 4 -5 28 -10 53 -10 29 -1 41 1 32 7 -8 5 18 8 67 7 72 -1 115 3 183
17 l22 4 0 245 0 245 -28 0 c-16 0 -32 -3 -36 -7z m-146 -457 c0 -3 -4 -8 -10
-11 -5 -3 -10 -1 -10 4 0 6 5 11 10 11 6 0 10 -2 10 -4z m-170 -1575 c0 -14
-20 -17 -88 -13 -34 2 -60 8 -56 13 7 12 144 12 144 0z m-1184 -262 l-14 -34
-1 36 c-1 39 7 55 21 41 5 -5 3 -24 -6 -43z m234 26 c-13 -16 -49 -19 -87 -9
-43 12 -23 24 38 24 54 0 60 -2 49 -15z m110 -129 c0 -11 -19 -15 -25 -6 -3 5
1 10 9 10 9 0 16 -2 16 -4z m-393 -148 c-3 -8 -6 -5 -6 6 -1 11 2 17 5 13 3
-3 4 -12 1 -19z m-105 -541 c2 -207 0 -377 -4 -377 -5 0 -8 172 -8 382 0 210
2 379 5 376 3 -2 6 -174 7 -381z m95 301 c-2 -13 -4 -5 -4 17 -1 22 1 32 4 23
2 -10 2 -28 0 -40z m-10 -135 c-2 -16 -4 -3 -4 27 0 30 2 43 4 28 2 -16 2 -40
0 -55z m40 5 c-2 -13 -4 -5 -4 17 -1 22 1 32 4 23 2 -10 2 -28 0 -40z m-347
21 c0 -11 -4 -17 -10 -14 -5 3 -10 13 -10 21 0 8 5 14 10 14 6 0 10 -9 10 -21z
m640 -13 c0 -17 -24 -28 -45 -20 -29 12 -14 34 22 34 13 0 23 -6 23 -14z
m-630 -97 c0 -42 -4 -68 -9 -64 -6 3 -8 22 -6 43 2 20 4 49 4 65 1 15 3 27 6
27 3 0 5 -32 5 -71z m-43 -141 c-3 -7 -5 -2 -5 12 0 14 2 19 5 13 2 -7 2 -19
0 -25z m-67 -28 c0 -5 -2 -10 -4 -10 -3 0 -8 5 -11 10 -3 6 -1 10 4 10 6 0 11
-4 11 -10z m528 -237 c2 -8 -5 -13 -17 -13 -12 0 -21 -4 -21 -10 0 -5 7 -10
15 -10 8 0 15 -7 15 -15 0 -8 -7 -15 -15 -15 -8 0 -15 -9 -15 -20 0 -11 -4
-20 -10 -20 -11 0 -14 103 -3 114 11 10 46 3 51 -11z m81 8 c7 -5 16 -32 19
-59 4 -49 3 -51 -23 -58 -51 -13 -81 53 -45 99 23 29 28 31 49 18z m113 -18
c8 -99 -5 -142 -30 -97 -8 15 -10 15 -15 -1 -12 -28 -27 -6 -27 40 0 61 7 75
41 75 20 0 29 -5 31 -17z m255 -115 c-3 -8 -6 -5 -6 6 -1 11 2 17 5 13 3 -3 4
-12 1 -19z m323 -20 c238 -36 253 -38 258 -43 21 -21 -83 -27 -198 -11 -36 5
-90 8 -120 8 -45 0 -49 2 -25 8 30 8 30 8 -7 9 -42 1 -124 19 -150 32 -10 5
-29 9 -43 9 -14 0 -25 5 -25 11 0 15 123 6 310 -23z m-733 -70 c-3 -7 -5 -2
-5 12 0 14 2 19 5 13 2 -7 2 -19 0 -25z m41 -13 c-2 -9 -8 -11 -15 -7 -7 5
-10 17 -6 31 5 20 7 21 15 7 5 -9 8 -23 6 -31z m40 29 c7 4 6 -4 -1 -24 -6
-16 -12 -28 -13 -27 0 1 -4 18 -8 37 -4 22 -3 30 3 21 5 -7 13 -11 19 -7z
m963 -17 c-13 -13 -31 0 -24 19 4 11 8 12 20 3 9 -8 10 -16 4 -22z m-910 -18
c7 -14 4 -17 -15 -15 -21 1 -22 3 -13 31 7 19 12 24 15 15 3 -8 8 -22 13 -31z
m-204 9 c-3 -8 -6 -5 -6 6 -1 11 2 17 5 13 3 -3 4 -12 1 -19z m44 -15 c13 -15
12 -15 -8 -4 -24 12 -29 21 -14 21 5 0 15 -7 22 -17z m-484 -45 c-3 -8 -6 -5
-6 6 -1 11 2 17 5 13 3 -3 4 -12 1 -19z m-64 -378 c-3 -11 -7 -20 -8 -20 -1 0
-5 9 -8 20 -3 12 0 20 8 20 8 0 11 -8 8 -20z m1328 -675 c-1 -15 -24 -12 -29
3 -3 9 2 13 12 10 10 -1 17 -7 17 -13z m333 -54 c11 -17 -25 -21 -52 -6 l-27
14 37 1 c20 0 39 -4 42 -9z m21 -40 c10 -17 -12 -21 -25 -6 -10 12 -10 15 3
15 9 0 18 -4 22 -9z"/>
<path d="M5365 2910 c3 -5 8 -10 11 -10 2 0 4 5 4 10 0 6 -5 10 -11 10 -5 0
-7 -4 -4 -10z"/>
<path d="M6057 6333 c-4 -3 -7 -13 -7 -22 1 -13 3 -13 11 2 11 19 8 33 -4 20z"/>
<path d="M3260 6306 c0 -21 18 -64 32 -80 11 -12 16 -12 31 2 18 16 20 16 32
-1 6 -9 16 -17 20 -17 5 0 1 8 -8 18 -10 10 -14 21 -11 25 7 7 -9 25 -46 50
-30 21 -50 22 -50 3z"/>
<path d="M1118 6298 c6 -6 18 -8 28 -6 14 3 12 5 -9 10 -19 3 -25 2 -19 -4z"/>
<path d="M2400 6266 c0 -25 4 -36 15 -36 9 0 15 9 15 24 0 13 -7 29 -15 36
-13 11 -15 7 -15 -24z"/>
<path d="M6016 6275 c-3 -8 -1 -15 3 -15 5 0 11 7 15 15 3 8 1 15 -3 15 -5 0
-11 -7 -15 -15z"/>
<path d="M3760 6270 c0 -5 18 -10 40 -10 22 0 40 5 40 10 0 6 -18 10 -40 10
-22 0 -40 -4 -40 -10z"/>
<path d="M5990 6260 c0 -8 -3 -25 -6 -37 -4 -13 -2 -23 4 -23 16 0 25 37 13
57 -8 14 -10 15 -11 3z"/>
<path d="M5716 6235 c-9 -26 -7 -32 5 -12 6 10 9 21 6 23 -2 3 -7 -2 -11 -11z"/>
<path d="M1533 6213 c9 -2 25 -2 35 0 9 3 1 5 -18 5 -19 0 -27 -2 -17 -5z"/>
<path d="M4313 6162 c-6 -4 6 -8 29 -8 26 -1 35 2 27 7 -17 11 -40 11 -56 1z"/>
<path d="M5020 6149 c0 -5 5 -7 10 -4 6 3 10 8 10 11 0 2 -4 4 -10 4 -5 0 -10
-5 -10 -11z"/>
<path d="M5880 6140 c0 -11 2 -20 4 -20 2 0 6 9 9 20 3 11 1 20 -4 20 -5 0 -9
-9 -9 -20z"/>
<path d="M0 6089 c0 -58 0 -59 25 -53 28 7 297 -44 306 -58 3 -6 9 -2 12 7 4
9 3 13 -2 10 -5 -3 -12 -1 -16 5 -8 14 56 13 92 -1 47 -18 137 -42 158 -41 31
2 63 -24 70 -57 8 -37 21 -47 65 -54 187 -26 269 -40 294 -53 16 -8 43 -14 60
-14 l31 -1 -40 -34 c-39 -34 -64 -43 -79 -27 -4 4 -27 8 -50 8 -24 1 -65 6
-92 13 -78 17 -292 50 -374 56 -73 6 -74 6 -47 -10 23 -13 27 -21 22 -38 -12
-38 -18 -168 -8 -178 6 -6 22 -7 37 -3 25 6 26 7 12 30 -13 18 -14 32 -5 71 5
26 11 56 13 65 1 10 4 20 7 22 2 2 45 -2 94 -10 50 -8 123 -17 162 -20 88 -7
125 -16 131 -32 5 -16 -117 -72 -160 -73 l-33 -1 30 -7 c20 -4 26 -9 18 -14
-7 -5 -14 -5 -14 0 -1 4 -4 -5 -8 -22 -6 -26 -11 -30 -39 -30 -17 0 -32 -3
-32 -6 0 -14 31 -31 45 -25 25 9 17 -8 -20 -43 -34 -31 -37 -32 -92 -25 -83
10 -105 20 -101 45 4 30 -29 51 -43 27 -6 -10 -17 -18 -25 -18 -8 0 -23 -5
-33 -12 -15 -9 -23 -9 -35 1 -28 23 -19 41 22 42 27 1 30 3 12 6 -14 3 -29 8
-35 13 -17 13 -89 20 -105 10 -12 -8 -9 -10 12 -10 32 0 39 -9 31 -39 -5 -20
-10 -21 -52 -15 -25 4 -66 7 -91 6 -25 0 -62 7 -83 15 -39 17 -53 14 -44 -10
3 -9 27 -16 64 -20 32 -3 71 -9 87 -12 16 -3 72 -12 124 -20 52 -8 98 -17 101
-20 3 -4 11 -43 16 -88 9 -74 12 -82 32 -85 28 -4 39 20 48 101 4 34 11 57 18
57 12 0 178 -19 227 -25 14 -2 58 -7 98 -11 82 -8 80 -5 84 -114 3 -62 4 -65
27 -62 19 2 22 -1 16 -15 -4 -10 -23 -61 -42 -113 -20 -52 -39 -99 -43 -105
-4 -5 -10 -23 -14 -40 -4 -16 -14 -43 -21 -60 -8 -16 -23 -63 -35 -103 -12
-40 -28 -76 -36 -79 -9 -3 -14 -20 -14 -46 0 -38 -34 -107 -52 -107 -12 0 -10
-48 2 -55 32 -20 -7 -53 -41 -35 -11 6 -19 7 -19 1 0 -5 7 -12 15 -15 13 -5
14 -10 4 -28 -19 -37 -42 -55 -82 -62 -20 -4 -49 -13 -64 -21 -15 -8 -35 -15
-43 -15 -8 -1 -30 -9 -49 -19 -24 -13 -30 -20 -21 -26 20 -12 66 -8 92 8 13 8
45 18 72 22 l49 7 -7 -29 c-4 -15 -15 -35 -24 -43 -9 -8 -17 -23 -18 -32 -4
-78 -3 -78 -28 -78 -33 0 -40 -14 -24 -47 11 -21 20 -28 41 -26 28 2 38 -19
16 -33 -6 -3 7 -14 30 -25 29 -13 41 -24 41 -39 0 -22 -12 -25 -41 -10 -15 9
-21 7 -26 -7 -4 -10 -11 -21 -17 -25 -6 -4 3 -8 19 -8 40 0 57 -17 44 -42 -6
-12 -6 -18 1 -18 5 0 10 -15 10 -32 l-1 -33 -30 34 c-22 24 -28 36 -20 44 19
19 12 25 -36 32 -27 4 -53 11 -60 16 -7 7 -14 6 -18 -1 -10 -15 4 -30 28 -30
28 -1 63 -28 72 -57 5 -18 2 -23 -13 -23 -10 0 -27 9 -37 20 -10 11 -25 20
-34 19 -11 0 -12 -2 -3 -6 7 -3 19 -18 28 -34 15 -30 20 -31 70 -12 7 2 20
-17 30 -44 9 -26 23 -55 30 -63 7 -9 16 -34 20 -57 5 -36 3 -43 -15 -53 -12
-6 -31 -8 -42 -5 -11 4 -26 2 -34 -5 -17 -14 -29 3 -20 30 3 11 -1 30 -10 44
-14 21 -22 24 -51 19 l-34 -6 0 47 0 46 -39 0 c-37 0 -40 2 -39 28 1 15 -2 37
-6 50 -5 14 -3 29 4 37 11 13 7 14 -21 9 -19 -3 -52 -11 -74 -17 -22 -6 -45
-11 -52 -12 -14 0 -30 -15 -17 -15 5 0 18 -7 28 -15 17 -13 19 -26 17 -112 -2
-105 -7 -133 -22 -133 -5 0 -9 26 -8 58 2 85 1 92 -20 92 -26 0 -31 -18 -37
-142 -3 -60 -9 -120 -14 -134 -6 -14 -11 -37 -11 -52 -1 -15 -5 -4 -9 23 -4
28 -3 97 2 155 5 58 9 116 9 129 -1 13 6 32 14 41 14 15 13 18 -2 32 -10 9
-29 18 -43 20 -22 3 -25 8 -25 43 0 30 4 39 15 37 11 -3 11 1 -3 16 -9 10 -17
22 -17 26 0 4 -16 28 -35 53 -23 30 -35 40 -35 28 0 -10 16 -37 35 -61 37 -45
49 -79 17 -51 -10 10 -24 17 -30 17 -16 0 -15 -43 0 -58 9 -9 8 -12 -5 -12
-16 0 -17 -49 -17 -714 l0 -714 128 -4 c98 -3 133 -7 151 -20 18 -13 21 -19
10 -22 -15 -5 -228 -54 -266 -62 -21 -4 -23 -10 -23 -60 0 -49 2 -55 18 -49 9
3 51 13 92 21 41 7 94 18 118 24 52 12 85 13 78 1 -8 -13 14 -72 25 -65 5 3 9
23 9 44 0 35 3 40 28 46 15 3 47 12 72 20 54 16 233 61 273 68 65 11 187 9
202 -4 29 -24 43 7 47 100 3 82 2 85 -19 88 -13 2 -23 10 -23 18 0 10 14 14
55 14 l55 0 0 -60 c0 -62 -36 -268 -71 -399 -10 -41 -19 -92 -19 -114 0 -22
-8 -61 -17 -87 -16 -45 -16 -49 0 -73 24 -37 21 -64 -9 -83 -14 -9 -23 -23
-20 -30 3 -8 1 -35 -3 -61 -6 -33 -6 -52 2 -61 7 -9 7 -16 1 -20 -15 -11 -36
-109 -30 -139 3 -16 0 -48 -8 -73 -11 -38 -11 -51 1 -85 8 -22 12 -52 9 -68
-3 -15 -1 -39 4 -53 13 -34 30 -184 32 -291 2 -82 4 -89 30 -113 23 -21 34
-51 63 -160 48 -187 51 -176 -42 -184 -186 -15 -727 -4 -905 20 -40 5 -48 3
-48 -10 0 -12 11 -16 43 -17 23 -1 44 -1 47 -1 3 0 73 -6 155 -13 176 -17 500
-19 669 -5 66 6 121 9 123 7 2 -2 12 -39 23 -83 11 -43 24 -88 29 -99 13 -32
39 -117 46 -152 l7 -33 1533 0 1534 0 10 38 c43 164 63 249 63 262 1 25 45
240 67 322 12 43 21 89 21 103 0 14 9 34 20 45 18 18 20 34 21 158 0 75 4 146
8 157 5 11 5 27 0 36 -5 10 -2 40 7 75 24 90 23 343 -1 401 -20 47 -19 59 6
111 20 40 21 50 11 111 -7 36 -14 84 -18 106 -3 22 -14 65 -24 95 -12 37 -19
89 -20 155 -1 55 -2 120 -3 145 -3 70 27 849 39 1033 5 68 3 97 -4 97 -6 0
-16 18 -22 40 -10 37 -12 39 -36 30 -40 -16 -84 -11 -159 15 -45 16 -92 25
-131 25 -70 0 -74 4 -80 80 -2 25 -8 88 -13 140 -6 52 -10 179 -10 283 l-1
187 61 0 c40 0 65 -5 75 -15 20 -19 35 -19 28 0 -4 9 0 16 7 16 46 4 -56 13
-117 11 l-74 -4 0 -349 0 -349 -43 0 c-33 0 -49 -6 -67 -25 -31 -33 -52 -32
-93 5 -29 25 -44 30 -88 31 -30 1 -79 4 -108 7 l-55 7 -1 266 c-1 212 -4 270
-15 284 -12 15 -14 15 -23 0 -13 -24 -12 -214 2 -228 6 -6 11 -42 11 -84 0
-70 -1 -74 -27 -84 -14 -5 -33 -7 -41 -4 -7 3 -19 2 -25 -2 -7 -5 10 -10 38
-13 48 -5 50 -6 50 -35 0 -30 -1 -30 -60 -33 -55 -3 -63 0 -85 23 -24 26 -24
27 -6 40 10 8 23 12 27 9 5 -3 9 0 9 5 0 6 -9 11 -21 11 -11 0 -32 9 -46 20
-14 11 -37 20 -51 20 -22 0 -24 3 -18 31 3 17 6 42 6 54 0 12 11 34 25 49 14
15 25 32 25 38 0 5 11 24 25 40 19 23 25 40 23 69 -2 47 2 53 54 58 4 1 5 10
3 21 -2 11 0 18 6 15 5 -4 9 -13 9 -21 0 -10 7 -14 18 -12 9 2 16 10 15 16 -2
7 4 12 12 12 8 0 15 8 15 17 0 9 13 40 29 68 16 29 35 80 42 114 10 55 10 63
-6 81 -14 16 -16 29 -10 75 3 30 13 61 20 69 8 8 16 28 17 45 1 17 8 31 15 31
8 0 10 7 6 18 -6 16 -6 16 10 0 9 -9 17 -25 17 -35 0 -10 4 -24 9 -32 7 -11
13 -10 30 6 20 19 20 21 4 61 -15 39 -15 43 1 60 9 11 35 25 59 32 23 7 54 23
69 35 15 13 33 25 39 27 8 3 12 27 11 71 -2 83 -23 127 -63 127 -20 0 -46 19
-98 68 -39 38 -71 76 -71 86 0 9 -11 29 -25 44 -18 19 -25 38 -25 66 0 44 15
40 24 -6 2 -15 9 -35 15 -45 9 -16 10 -16 11 4 0 27 26 21 35 -8 4 -11 10 -17
14 -14 16 9 -2 60 -37 109 -32 44 -38 48 -68 43 -25 -4 -37 0 -55 20 -23 23
-28 24 -99 18 -67 -6 -80 -4 -113 15 -39 23 -48 34 -21 23 12 -4 15 -2 12 8
-3 8 -12 13 -22 11 -9 -2 -16 2 -16 8 0 5 7 10 16 10 19 0 12 30 -21 80 -18
29 -31 37 -74 46 -65 13 -66 3 -12 -87 21 -35 37 -67 35 -71 -4 -6 -40 6 -94
32 -8 3 -23 31 -33 61 -10 30 -23 56 -28 57 -5 2 -9 10 -9 18 0 7 -12 16 -27
19 -16 4 -45 10 -66 15 -36 8 -37 7 -31 -13 6 -23 56 -99 86 -131 10 -11 18
-23 18 -28 0 -7 -31 -12 -67 -11 -7 1 -13 -5 -13 -12 0 -7 -7 -16 -16 -19 -22
-9 -25 -8 -22 7 5 26 -14 55 -40 61 -15 4 -35 9 -44 12 -34 10 -19 -25 22 -52
22 -15 40 -28 40 -30 0 -2 -17 -12 -37 -22 -52 -26 -129 -37 -140 -20 -4 8
-20 21 -34 30 -14 9 -73 64 -131 122 -76 77 -114 108 -137 112 -21 5 -28 10
-20 15 16 9 -14 59 -35 59 -8 0 -16 5 -18 11 -2 5 -24 12 -48 15 -43 4 -43 3
-12 -6 39 -13 43 -25 5 -15 -16 4 -39 9 -53 11 -96 13 -119 18 -114 25 3 5 -6
9 -20 9 -14 0 -26 5 -26 11 0 8 -18 10 -57 6 -32 -3 -49 -2 -38 3 15 6 7 10
-39 20 -32 6 -71 10 -87 8 -16 -3 -29 -1 -29 3 0 5 -6 6 -14 3 -8 -3 -29 2
-46 11 -19 10 -47 15 -66 13 -18 -2 -31 -1 -29 3 7 10 -75 18 -125 13 -30 -4
-41 -2 -31 4 18 13 -3 26 -24 15 -8 -5 -34 -7 -57 -4 -39 4 -40 5 -18 13 20 6
18 7 -12 4 -20 -3 -39 -2 -42 2 -4 3 -19 6 -34 7 -15 1 -45 3 -67 4 l-40 4 35
8 c31 7 30 7 -17 6 -28 -1 -49 0 -47 2 7 8 -88 30 -128 31 -20 0 -39 4 -42 9
-3 4 -25 11 -48 15 -24 4 -52 8 -63 10 -11 2 -42 6 -70 10 -27 4 -70 11 -95
16 -97 19 -218 40 -280 49 -36 6 -117 20 -180 31 -63 12 -131 24 -150 26 -19
3 -41 7 -47 9 -10 3 -13 -12 -13 -56z m1147 -215 c-3 -3 -12 -4 -19 -1 -8 3
-5 6 6 6 11 1 17 -2 13 -5z m126 -21 c-7 -2 -21 -2 -30 0 -10 3 -4 5 12 5 17
0 24 -2 18 -5z m137 -24 c15 -5 6 -6 -25 -2 -27 3 -57 9 -65 14 -17 9 51 0 90
-12z m100 -19 c0 -12 -8 -12 -35 0 -18 8 -17 9 8 9 15 1 27 -3 27 -9z m55 -10
c-6 -10 -45 -1 -45 10 0 4 11 5 25 2 14 -2 23 -8 20 -12z m192 -30 c15 -9 11
-10 -17 -5 -19 3 -57 8 -85 11 -78 9 -68 17 12 11 40 -3 81 -11 90 -17z m66
-17 c-7 -2 -19 -2 -25 0 -7 3 -2 5 12 5 14 0 19 -2 13 -5z m128 -13 c11 0 19
-4 19 -9 0 -12 -82 -2 -95 12 -7 6 1 8 24 3 18 -3 42 -6 52 -6z m146 -33 c9
-9 -90 3 -100 13 -4 3 15 4 43 0 27 -3 53 -9 57 -13z m-767 -32 c7 -8 9 -22 6
-32 -6 -15 -9 -15 -28 4 -11 12 -17 26 -14 32 10 15 21 14 36 -4z m965 -5 c3
-5 1 -10 -4 -10 -6 0 -11 5 -11 10 0 6 2 10 4 10 3 0 8 -4 11 -10z m-1180 -50
c0 -7 -6 -15 -12 -17 -8 -3 -13 4 -13 17 0 13 5 20 13 18 6 -3 12 -11 12 -18z
m-33 -101 c-2 -44 -9 -73 -23 -91 -10 -15 -19 -34 -19 -43 0 -18 -26 -19 -60
-2 -21 11 -24 18 -21 56 2 29 -2 47 -11 52 -10 7 -11 12 0 26 7 10 17 30 23
44 9 24 14 26 62 24 l52 -2 -3 -64z m61 7 c3 -8 -1 -20 -10 -27 -13 -11 -17
-10 -29 5 -7 11 -11 23 -8 27 8 14 41 10 47 -5z m-246 -103 c-5 -13 -14 -23
-18 -23 -4 0 -14 -3 -23 -6 -27 -10 -19 28 18 85 15 24 36 -27 23 -56z m-143
31 c6 -16 -9 -44 -23 -44 -4 0 -16 6 -27 14 -19 15 -19 15 1 30 26 20 41 20
49 0z m1696 -47 c14 -12 33 -36 42 -54 16 -31 16 -32 -15 -79 -17 -26 -38 -49
-46 -51 -29 -9 -81 -93 -96 -155 -7 -33 -15 -61 -17 -63 -6 -7 -157 -55 -171
-55 -7 0 -54 -18 -104 -39 -50 -22 -108 -43 -130 -47 -21 -4 -58 -15 -82 -26
-24 -10 -46 -16 -49 -13 -3 2 16 46 41 97 26 51 47 98 47 104 0 6 9 23 20 36
17 23 25 25 67 21 27 -3 61 -15 78 -28 29 -21 62 -24 49 -4 -3 6 -1 16 6 24 8
10 8 19 1 34 -15 27 -14 34 4 28 8 -4 17 -2 20 3 4 6 -6 10 -20 10 -57 0 -66
14 -61 92 6 84 15 98 50 75 35 -24 94 -86 101 -108 5 -14 16 -19 41 -19 19 0
36 1 37 3 2 1 10 -3 18 -9 8 -5 21 -10 29 -9 8 0 18 -6 22 -15 5 -11 7 -9 7 8
1 12 7 25 15 28 17 6 17 45 1 56 -5 4 2 8 18 8 15 0 27 5 27 10 0 6 -13 10
-29 10 -17 0 -31 6 -35 15 -6 17 2 123 11 138 9 14 74 -2 103 -26z m-1462 -46
c11 -7 10 -17 -3 -59 -9 -28 -23 -59 -31 -69 -12 -16 -13 -9 -14 54 0 48 4 73
13 76 18 8 21 8 35 -2z m-17 -252 c-5 -13 -10 -19 -10 -12 -1 15 10 45 15 40
3 -2 0 -15 -5 -28z m-30 -86 c-20 -35 -21 -36 -14 -8 3 17 10 32 15 33 4 2 8
11 9 20 0 10 3 12 5 5 3 -6 -4 -29 -15 -50z m1387 -125 c14 -14 16 -64 3 -73
-5 -3 -12 -1 -16 5 -3 5 -16 10 -29 10 -12 0 -27 5 -33 11 -16 16 -4 47 21 52
38 8 42 7 54 -5z m-1387 -28 c38 0 37 -14 -2 -31 -27 -11 -29 -14 -16 -24 9
-6 19 -31 23 -54 4 -24 13 -45 20 -48 22 -8 16 -21 -8 -21 -46 0 -158 -39
-158 -54 0 -4 9 -12 21 -18 16 -9 19 -17 14 -38 -5 -22 -4 -24 9 -13 13 11 18
10 31 -3 21 -20 22 -20 35 5 9 15 8 24 -1 35 -6 8 -10 17 -7 19 2 3 15 -9 27
-26 28 -38 23 -86 -8 -69 -14 7 -22 6 -30 -4 -7 -8 -23 -17 -36 -20 -13 -3
-26 -15 -30 -25 -6 -21 -40 -25 -62 -8 -7 5 -13 5 -13 1 0 -5 -9 -15 -20 -22
-18 -11 -19 -10 -10 12 5 13 6 33 3 45 -3 12 -1 21 5 21 20 0 54 86 53 135 0
10 4 24 8 30 5 5 16 35 26 65 22 66 62 123 82 115 8 -3 28 -5 44 -5z m1144
-106 c-13 -10 -30 -12 -50 -8 -40 9 -45 12 -45 33 0 31 25 45 59 33 26 -9 29
-8 25 6 -3 9 3 2 13 -16 17 -33 17 -34 -2 -48z m242 -14 c2 -46 0 -59 -7 -45
-7 17 -9 18 -9 3 -1 -12 -9 -18 -27 -18 -16 0 -24 5 -21 13 2 6 10 11 16 10 6
-2 11 4 11 13 0 8 4 13 9 9 5 -3 13 0 17 7 4 7 4 10 -1 6 -12 -11 -35 11 -35
33 0 11 -6 19 -12 20 -7 0 -4 4 7 9 41 18 50 9 52 -60z m-479 41 c6 0 12 -6
12 -12 0 -12 48 -53 65 -55 5 -1 18 -2 28 -3 32 -2 1 -39 -39 -47 -41 -8 -37
-17 9 -20 51 -3 54 -6 17 -15 -29 -7 -26 -7 18 -4 60 5 91 27 72 50 -18 22 -3
52 31 59 17 3 38 15 48 27 22 27 86 37 95 14 4 -12 -4 -20 -29 -31 -19 -7 -40
-14 -46 -14 -8 0 -8 -4 1 -15 7 -8 9 -15 4 -16 -5 -1 16 -9 46 -19 l55 -17
-49 -1 c-33 0 -45 3 -35 9 16 10 8 12 -15 3 -26 -10 7 -34 48 -34 31 0 36 -3
36 -24 0 -13 -7 -26 -15 -29 -22 -9 -59 1 -72 19 -13 17 -67 13 -141 -12 -23
-8 -48 -14 -54 -14 -21 0 -128 -43 -123 -49 2 -4 0 -12 -4 -19 -11 -19 -157
-2 -154 18 8 63 55 136 78 122 5 -3 4 2 -4 11 -11 15 -11 17 2 17 27 0 47 -12
40 -23 -4 -7 0 -8 11 -4 10 4 28 7 41 7 30 0 55 25 55 55 0 20 -6 25 -45 31
-25 3 -52 4 -60 0 -9 -3 -15 0 -15 8 0 11 10 13 42 9 26 -4 39 -2 35 4 -4 6
-18 9 -32 8 -14 -2 -25 1 -25 5 0 5 12 7 28 6 15 -2 33 -4 40 -5z m-11 -47
c52 -14 32 -67 -23 -60 -43 6 -54 13 -54 35 0 31 25 39 77 25z m-840 -46 c-3
-8 -6 -5 -6 6 -1 11 2 17 5 13 3 -3 4 -12 1 -19z m753 12 c0 -5 -5 -10 -11
-10 -5 0 -7 5 -4 10 3 6 8 10 11 10 2 0 4 -4 4 -10z m925 -110 c3 -5 1 -10 -4
-10 -6 0 -11 5 -11 10 0 6 2 10 4 10 3 0 8 -4 11 -10z m115 -15 c0 -8 -7 -15
-16 -15 -14 0 -14 3 -4 15 7 8 14 15 16 15 2 0 4 -7 4 -15z m-469 -36 c-14
-15 -36 -23 -73 -27 -63 -6 -60 1 13 27 72 26 84 26 60 0z m813 -14 c3 -8 1
-15 -3 -15 -5 0 -11 7 -15 15 -3 8 -1 15 3 15 5 0 11 -7 15 -15z m111 6 c3 -6
-4 -15 -15 -21 -22 -12 -23 -10 -14 14 7 18 20 21 29 7z m-1337 -28 c-10 -2
-28 -2 -40 0 -13 2 -5 4 17 4 22 1 32 -1 23 -4z m100 -10 c-10 -2 -26 -2 -35
0 -10 3 -2 5 17 5 19 0 27 -2 18 -5z m982 -33 c0 -15 6 -30 14 -33 8 -3 19
-21 25 -40 7 -20 19 -38 28 -41 13 -5 15 0 9 33 -7 43 9 67 34 50 9 -5 52 -7
102 -3 113 8 138 -4 138 -70 0 -38 -2 -43 -19 -39 -13 3 -21 -2 -26 -16 -3
-12 -10 -21 -15 -21 -4 0 -10 -8 -14 -17 -7 -22 -24 -48 -52 -79 -27 -30 -70
-24 -132 18 -40 28 -42 30 -27 51 21 30 19 44 -10 51 -22 6 -31 22 -26 49 1 5
-9 5 -21 2 -13 -4 -25 -7 -28 -7 -29 -1 -40 4 -40 17 0 8 -6 15 -14 15 -19 0
-28 26 -13 39 7 5 25 14 40 20 20 8 27 17 27 36 0 15 4 24 10 20 6 -3 10 -19
10 -35z m-313 -2 c21 -9 47 -19 57 -22 15 -5 17 -9 8 -18 -7 -7 -12 -20 -12
-29 0 -23 -9 -28 -62 -35 -43 -6 -45 -5 -61 29 -9 19 -17 48 -17 64 0 24 4 28
24 28 14 -1 42 -9 63 -17z m-937 -28 c0 -5 -5 -10 -12 -12 -6 -2 -8 -9 -4 -16
5 -8 13 -5 26 8 11 11 27 20 35 20 16 0 38 -34 28 -43 -3 -3 11 -2 31 4 20 6
45 7 56 4 11 -3 22 0 27 8 26 44 86 39 118 -10 21 -32 10 -45 -34 -42 -20 2
-46 -3 -58 -9 -26 -15 -67 -16 -58 -2 3 6 2 10 -4 10 -5 0 -12 -4 -15 -9 -10
-15 -106 -23 -122 -10 -11 9 -18 9 -26 1 -18 -18 -107 -15 -114 3 -8 19 30
101 52 113 19 10 74 -3 74 -18z m548 -63 c16 -45 15 -54 -7 -60 -16 -4 -19
-11 -15 -43 3 -21 10 -42 17 -46 9 -6 9 -10 1 -15 -6 -5 -14 -39 -18 -78 -11
-110 -34 -237 -35 -192 -1 20 -5 37 -11 37 -5 0 -10 7 -10 15 0 8 5 15 10 15
6 0 10 25 10 55 0 63 4 61 -100 42 -64 -12 -65 -12 -68 -47 -6 -58 -22 -60
-22 -3 0 51 0 51 -25 40 -14 -7 -25 -15 -25 -19 0 -5 -4 -8 -8 -8 -4 0 -6 17
-4 38 l5 37 -22 -19 c-11 -11 -21 -25 -21 -32 0 -7 -7 -20 -16 -28 -12 -12
-12 -16 -2 -16 7 0 20 -5 28 -10 13 -9 13 -11 0 -20 -21 -14 -30 -12 -30 5 0
20 -10 19 -25 -2 -12 -15 -15 -15 -48 0 -19 10 -38 23 -40 30 -3 6 -6 0 -6
-15 -1 -31 -4 -33 -32 -18 -21 12 -25 50 -7 68 8 8 8 15 0 24 -16 20 -13 98 5
105 24 10 28 -2 33 -112 l2 -30 8 29 c5 15 10 59 12 97 l3 69 60 0 c34 0 66
-5 73 -12 7 -7 13 -32 13 -57 1 -26 4 -35 6 -21 2 14 7 32 10 40 10 22 10 70
1 70 -4 0 -8 10 -7 23 0 12 3 16 6 9 4 -10 8 -10 19 -1 11 9 14 8 14 -1 0 -8
3 -11 6 -7 9 9 31 -16 36 -39 2 -15 14 -20 51 -24 26 -3 51 -2 55 2 4 4 19 1
34 -6 34 -18 38 -13 38 43 0 111 24 154 48 88z m-1410 -22 c2 -28 -40 -117
-72 -152 -12 -13 -33 -23 -50 -23 -16 0 -46 -5 -68 -12 -31 -9 -41 -9 -47 1
-4 6 -15 9 -24 5 -21 -8 -21 6 -2 52 8 19 12 40 10 47 -2 6 9 27 24 45 l29 34
22 -24 c12 -13 20 -18 19 -13 -2 6 3 21 10 34 11 20 15 22 22 9 11 -20 83 -23
75 -3 -5 14 7 23 34 24 10 1 16 -9 18 -24z m2572 15 c0 -5 -7 -10 -16 -10 -8
0 -12 5 -9 10 3 6 10 10 16 10 5 0 9 -4 9 -10z m-73 -82 c-3 -8 -6 -5 -6 6 -1
11 2 17 5 13 3 -3 4 -12 1 -19z m-1754 5 c40 -6 33 -23 -8 -23 -11 0 -29 -9
-38 -21 -11 -12 -25 -18 -33 -15 -13 5 -15 -2 -13 -32 4 -47 -3 -58 -42 -66
-43 -8 -52 1 -30 32 10 15 31 51 46 80 29 56 36 59 118 45z m727 -98 c0 -22 4
-23 46 -21 l45 3 -27 -22 c-24 -19 -26 -26 -20 -58 6 -33 5 -37 -14 -37 -17 0
-20 6 -20 40 0 39 -19 58 -21 23 -6 -77 -3 -98 11 -94 8 2 31 5 50 8 l35 5 -6
-109 c-4 -59 -7 -109 -8 -110 0 -2 -26 -3 -56 -3 -52 0 -57 -2 -103 -47 -27
-27 -83 -70 -125 -98 -47 -31 -80 -59 -83 -72 -4 -13 -10 -23 -16 -23 -5 0
-20 -11 -34 -25 -13 -13 -42 -30 -65 -36 -22 -7 -46 -21 -54 -32 -7 -10 -24
-20 -36 -21 -13 -2 -66 -17 -118 -35 -51 -17 -102 -31 -112 -31 -10 0 -21 -5
-24 -11 -5 -7 -14 -3 -27 10 -10 12 -16 26 -13 31 3 6 1 10 -5 10 -12 0 -9
174 3 187 4 3 4 16 1 29 -8 30 14 96 29 87 6 -4 8 0 4 10 -7 18 11 27 52 27
15 0 32 5 39 12 18 18 23 6 29 -62 6 -66 26 -79 31 -19 7 100 3 96 100 110 48
7 92 14 97 14 6 0 10 -29 10 -69 0 -46 4 -71 13 -73 9 -4 12 15 12 71 0 52 4
78 13 81 6 2 77 11 157 20 214 23 197 16 199 80 1 45 -2 55 -19 60 -18 6 -20
15 -20 89 0 46 3 111 6 145 l7 62 18 -42 c11 -23 19 -52 19 -64z m645 95 c3
-5 1 -10 -4 -10 -6 0 -11 5 -11 10 0 6 2 10 4 10 3 0 8 -4 11 -10z m-1245 -25
c10 -12 10 -18 -1 -31 -7 -9 -14 -32 -16 -52 -1 -19 -6 -39 -12 -45 -6 -6 -11
-21 -11 -34 0 -14 -6 -23 -15 -23 -8 0 -29 -16 -46 -35 -18 -19 -36 -35 -41
-35 -12 0 -9 106 6 174 9 46 17 61 35 68 13 4 26 6 31 3 4 -3 13 2 20 10 16
19 34 19 50 0z m34 -10 c3 -8 1 -15 -4 -15 -6 0 -10 7 -10 15 0 8 2 15 4 15 2
0 6 -7 10 -15z m-204 -84 c0 -5 -7 -11 -15 -15 -9 -3 -15 0 -15 9 0 8 7 15 15
15 8 0 15 -4 15 -9z m-800 -41 c0 -5 -5 -10 -11 -10 -5 0 -7 5 -4 10 3 6 8 10
11 10 2 0 4 -4 4 -10z m725 -19 c3 -5 1 -13 -5 -16 -6 -4 -10 -16 -8 -28 2
-16 -2 -22 -14 -21 -10 1 -18 -5 -18 -13 0 -17 -37 -53 -53 -53 -13 0 -2 98
13 115 6 8 24 16 38 18 15 2 30 5 34 6 4 0 9 -3 13 -8z m1468 -7 c15 -3 27
-10 27 -15 0 -19 -53 -31 -86 -20 -17 6 -38 11 -47 11 -9 0 -21 10 -28 21 -11
21 -10 21 47 15 33 -4 71 -9 87 -12z m-873 -59 c0 -8 -4 -15 -9 -15 -13 0 -22
16 -14 24 11 11 23 6 23 -9z m-579 -28 c-8 -8 -11 -7 -11 4 0 20 13 34 18 19
3 -7 -1 -17 -7 -23z m469 13 c0 -5 -5 -10 -11 -10 -5 0 -7 5 -4 10 3 6 8 10
11 10 2 0 4 -4 4 -10z m-173 -82 c-2 -13 -4 -3 -4 22 0 25 2 35 4 23 2 -13 2
-33 0 -45z m371 51 c-2 -6 -8 -10 -13 -10 -5 0 -11 4 -13 10 -2 6 4 11 13 11
9 0 15 -5 13 -11z m-1469 -56 c-12 -22 -14 -23 -20 -6 -4 11 0 25 9 36 22 24
29 4 11 -30z m1379 36 c-2 -6 -8 -10 -13 -10 -5 0 -11 4 -13 10 -2 6 4 11 13
11 9 0 15 -5 13 -11z m-130 -46 c2 -14 -7 -28 -27 -43 -17 -12 -31 -18 -31
-14 0 4 -6 0 -13 -10 -7 -10 -22 -17 -33 -14 -15 3 -19 12 -19 48 0 33 4 45
15 45 8 0 16 -10 18 -22 5 -33 28 -28 41 8 12 35 44 37 49 2z m1142 14 c0 -16
-21 -47 -32 -47 -6 0 -16 -7 -22 -15 -9 -12 -20 -12 -71 -1 -33 7 -71 19 -85
26 -25 14 -31 16 -50 19 -5 0 -10 5 -10 10 0 6 24 12 53 14 90 6 217 2 217 -6z
m-1694 -12 c4 -8 17 -15 29 -15 34 0 55 -10 55 -27 0 -16 -58 -43 -94 -43 -13
0 -27 -6 -30 -12 -3 -7 -3 5 -1 27 3 22 2 34 -1 28 -7 -16 -30 -17 -39 -3 -10
16 5 50 21 50 8 0 14 -4 14 -10 0 -5 5 -10 11 -10 6 0 9 7 5 15 -3 9 0 15 10
15 8 0 17 -7 20 -15z m44 -120 c15 -19 5 -65 -15 -65 -16 0 -30 42 -21 65 7
19 20 19 36 0z m1681 -151 c-7 -38 -13 -79 -15 -92 -2 -13 -8 -28 -15 -35 -6
-6 -11 -21 -11 -34 0 -13 -5 -23 -11 -23 -18 0 -130 -104 -125 -117 3 -6 0
-14 -7 -16 -8 -3 -3 -14 13 -32 17 -19 21 -29 13 -32 -7 -3 -13 -13 -13 -23 0
-10 -7 -20 -15 -24 -8 -3 -15 -11 -15 -19 0 -9 -12 -13 -35 -13 -29 1 -36 6
-45 30 -11 32 -27 27 -33 -11 -2 -12 -13 -31 -24 -41 -12 -10 -25 -30 -28 -45
-7 -26 -6 -26 31 -21 21 2 40 7 43 9 2 3 15 -5 28 -17 l24 -22 -43 -21 c-34
-16 -44 -26 -46 -49 -3 -26 -12 -15 -88 100 -46 71 -84 139 -84 152 0 28 5 28
42 -3 43 -36 123 -31 164 10 14 13 14 16 -1 21 -8 4 -30 7 -48 8 -24 1 -32 6
-32 20 0 14 13 23 45 32 28 8 46 10 48 4 2 -6 10 -10 18 -10 10 0 13 7 8 24
-3 13 -1 27 5 30 6 4 11 14 11 22 0 11 -11 13 -53 8 -47 -6 -57 -3 -80 17 -15
13 -29 34 -32 47 -5 30 9 68 27 70 46 3 88 28 88 50 0 9 -10 22 -22 27 -15 7
-23 19 -23 35 0 20 6 26 30 31 37 7 116 0 132 -13 15 -12 6 -38 -13 -38 -8 0
-14 -6 -14 -14 0 -28 54 -16 85 20 17 20 37 36 45 37 9 2 26 13 39 26 35 35
45 16 32 -65z m-3075 -39 c-5 -24 -3 -35 5 -35 8 0 8 -4 -1 -15 -19 -23 -27
-10 -24 37 2 24 3 44 3 46 1 1 6 2 12 2 7 0 9 -12 5 -35z m413 -26 c4 -29 -19
-129 -30 -129 -14 0 -22 110 -10 137 14 30 35 26 40 -8z m-119 -63 c0 -80 -18
-186 -31 -186 -12 0 -3 214 10 268 1 2 6 0 11 -3 6 -3 10 -39 10 -79z m3155
-7 c11 -1 5 -5 -15 -8 -19 -4 -38 -5 -43 -3 -14 6 3 20 21 17 9 -2 26 -4 37
-6z m-3293 -31 c-7 -7 -12 -8 -12 -2 0 14 12 26 19 19 2 -3 -1 -11 -7 -17z m1
-73 l-7 -40 -7 34 c-8 38 -1 67 12 54 5 -5 5 -26 2 -48z m865 29 c19 -13 22
-24 20 -57 -3 -35 -7 -43 -30 -51 -18 -6 -38 -6 -55 0 -25 9 -28 15 -27 53 1
65 43 90 92 55z m-375 -12 c14 -15 35 -19 109 -21 114 -3 140 -8 136 -30 -2
-10 -15 -17 -38 -19 -19 -2 -40 -10 -47 -19 -10 -13 -26 -15 -81 -11 -57 4
-72 2 -91 -13 -28 -23 -43 -24 -81 -4 -45 23 -52 81 -14 119 22 22 87 21 107
-2z m-498 -140 c-5 -14 -8 -14 -15 -3 -8 14 -7 23 7 59 5 13 8 11 11 -11 2
-16 1 -36 -3 -45z m325 24 c0 -25 -4 -48 -10 -51 -6 -4 -10 13 -10 44 0 28 5
51 10 51 6 0 10 -20 10 -44z m-406 -48 c5 -21 3 -28 -9 -28 -15 0 -22 40 -8
53 8 9 9 8 17 -25z m2356 24 c0 -4 -9 -8 -20 -8 -11 0 -20 4 -20 8 0 4 9 8 20
8 11 0 20 -4 20 -8z m-2150 -12 c0 -5 -4 -10 -10 -10 -5 0 -10 5 -10 10 0 6 5
10 10 10 6 0 10 -4 10 -10z m-120 -30 c0 -22 -1 -23 -24 -14 -13 5 -14 9 -5
20 16 20 29 17 29 -6z m121 -3 c-1 -12 -15 -9 -19 4 -3 6 1 10 8 8 6 -3 11 -8
11 -12z m653 -9 c29 -12 33 -24 38 -88 l3 -45 -58 -6 c-32 -4 -74 -3 -93 1
-18 4 -91 9 -161 9 -69 1 -130 4 -135 7 -8 5 19 63 35 75 5 4 46 7 92 8 86 2
99 -3 100 -41 0 -33 20 -23 23 12 7 67 85 101 156 68z m1509 -21 c15 -7 27
-15 27 -19 0 -5 4 -7 9 -5 18 5 61 -58 61 -90 0 -18 5 -33 10 -33 6 0 10 -7
10 -15 0 -8 5 -15 12 -15 6 0 8 -3 5 -7 -4 -3 -3 -11 2 -17 4 -6 13 -26 19
-44 9 -26 9 -32 -1 -29 -6 2 -11 9 -10 15 2 6 -4 9 -12 6 -18 -7 -19 0 -5 27
7 13 7 19 0 19 -5 0 -10 -7 -10 -15 0 -24 -3 -22 -84 46 -29 25 -84 122 -101
177 -6 22 -5 23 17 17 12 -4 35 -12 51 -18z m1836 -49 c1 -20 -3 -40 -9 -43
-6 -4 -10 17 -9 57 0 68 17 56 18 -14z m-259 17 c0 -5 -5 -3 -10 5 -5 8 -10
20 -10 25 0 6 5 3 10 -5 5 -8 10 -19 10 -25z m-3550 -4 c0 -11 -4 -23 -10 -26
-6 -4 -10 5 -10 19 0 14 5 26 10 26 6 0 10 -9 10 -19z m2405 -11 c4 -6 11 -7
17 -4 12 8 6 -5 -24 -48 -22 -32 -48 -27 -48 7 0 37 40 69 55 45z m1422 -22
c-3 -8 -6 -5 -6 6 -1 11 2 17 5 13 3 -3 4 -12 1 -19z m-3340 -88 c45 -27 59
-56 34 -70 -26 -13 -77 -12 -120 4 -46 16 -49 30 -12 52 17 10 31 22 31 26 0
14 34 8 67 -12z m-284 -10 c14 -11 28 -33 32 -48 5 -25 9 -27 45 -24 24 3 54
-2 74 -12 18 -8 44 -20 57 -25 24 -10 24 -10 -5 -10 -20 -1 -27 -5 -23 -15 20
-52 29 -98 21 -105 -32 -29 -229 -26 -240 4 -3 8 4 27 16 43 31 42 23 67 -20
68 -115 4 -107 2 -114 35 -9 48 3 80 38 95 45 19 89 17 119 -6z m3614 -10 c-3
-14 0 -16 17 -12 17 4 19 3 9 -9 -6 -8 -12 -18 -13 -24 -3 -16 -34 -65 -41
-65 -8 0 -3 86 6 117 8 26 29 19 22 -7z m33 -86 c0 -8 -4 -12 -10 -9 -5 3 -10
13 -10 21 0 8 5 12 10 9 6 -3 10 -13 10 -21z m-1307 9 c-7 -2 -19 -2 -25 0 -7
3 -2 5 12 5 14 0 19 -2 13 -5z m-2033 -18 c0 -9 -9 -15 -22 -15 -22 1 -23 1
-4 15 25 19 26 19 26 0z m104 -123 c13 -16 14 -24 4 -52 l-11 -33 -19 22 c-25
31 -24 81 2 81 4 0 14 -8 24 -18z m3163 -24 c-3 -8 -6 -5 -6 6 -1 11 2 17 5
13 3 -3 4 -12 1 -19z m-3724 -15 c4 -3 2 -12 -4 -20 -9 -9 -8 -13 0 -13 6 0
11 5 11 10 0 6 23 10 52 10 48 0 50 -1 32 -15 -10 -8 -32 -15 -49 -15 -28 0
-72 -19 -50 -21 29 -2 49 -9 58 -18 18 -18 33 -13 45 14 9 20 19 25 47 25 28
0 37 -5 50 -30 19 -37 30 -38 47 -2 9 17 22 28 39 30 22 3 29 -2 37 -27 13
-38 25 -39 40 -6 17 36 58 50 88 30 37 -24 32 -61 -8 -70 l-33 -8 40 -6 c35
-5 40 -10 43 -35 2 -16 -1 -32 -7 -35 -6 -4 -129 -7 -273 -6 l-263 0 2 35 c1
19 8 39 16 44 14 9 13 11 -1 22 -13 10 -14 14 -3 27 7 9 10 21 6 28 -4 6 -2
15 6 19 10 7 10 11 0 24 -12 14 -11 16 6 16 11 0 23 -3 26 -7z m212 -258 c0
-13 -8 -21 -22 -23 -17 -3 -23 2 -23 16 0 10 3 22 7 26 13 13 38 1 38 -19z
m103 -8 c3 -23 0 -28 -15 -25 -11 2 -19 14 -21 31 -3 23 0 28 15 25 11 -2 19
-14 21 -31z m42 -117 c0 -11 -3 -20 -7 -21 -5 0 -28 -3 -51 -5 -38 -5 -43 -3
-40 12 3 18 33 31 76 33 16 1 22 -5 22 -19z m-480 -14 c0 -19 -22 -36 -47 -36
-24 0 -31 14 -13 25 6 4 8 9 6 13 -2 4 9 7 25 8 16 1 29 -4 29 -10z m-100 -35
c0 -10 -30 -24 -37 -17 -3 3 -2 9 2 15 8 13 35 15 35 2z m240 -18 c0 -22 -98
-64 -129 -56 -25 6 -26 47 -1 49 8 0 22 4 30 7 16 6 53 13 83 16 10 0 17 -6
17 -16z m-430 -87 c0 -16 -14 -36 -26 -36 -14 0 -19 22 -7 33 7 8 33 10 33 3z
m-88 -47 c-13 -12 -62 -20 -62 -10 0 5 11 12 25 15 14 4 25 12 25 19 0 8 4 7
10 -3 5 -8 6 -18 2 -21z m3330 -80 c13 -7 18 -19 16 -37 l-3 -27 -83 2 c-89 3
-122 14 -122 41 0 36 21 44 99 37 41 -3 83 -11 93 -16z m-49 -86 c27 -4 41
-13 47 -27 14 -37 -4 -51 -66 -51 -56 0 -57 -1 -61 -30 -6 -40 -28 -63 -50
-49 -19 12 -28 131 -11 151 11 14 78 17 141 6z m-1786 -1058 c-2 -154 -9 -316
-16 -360 -6 -44 -15 -115 -19 -158 l-7 -78 -39 148 c-65 250 -65 250 -39 301
21 41 21 46 8 73 -9 15 -18 68 -21 117 -6 83 -5 90 15 104 17 12 22 27 24 76
2 54 5 61 27 69 16 6 34 6 49 -1 l23 -10 -5 -281z m2293 135 c9 -6 14 -21 12
-39 -2 -16 1 -32 7 -36 15 -9 14 -40 -3 -54 -16 -13 -30 -108 -21 -134 4 -9
16 -19 27 -23 19 -6 20 -12 15 -69 -6 -58 -41 -252 -69 -370 l-11 -50 -28 110
c-16 61 -29 130 -29 155 0 42 56 479 65 508 5 14 15 15 35 2z"/>
<path d="M760 4533 c0 -21 3 -24 9 -14 5 8 7 20 4 28 -8 21 -13 15 -13 -14z"/>
<path d="M2095 4690 c-3 -5 -2 -10 4 -10 5 0 13 5 16 10 3 6 2 10 -4 10 -5 0
-13 -4 -16 -10z"/>
<path d="M2090 4660 c-8 -5 -12 -12 -9 -15 4 -3 12 1 19 10 14 17 11 19 -10 5z"/>
<path d="M3060 4240 c0 -5 5 -10 10 -10 6 0 10 5 10 10 0 6 -4 10 -10 10 -5 0
-10 -4 -10 -10z"/>
<path d="M1966 4412 c-9 -14 9 -31 23 -23 7 5 10 14 7 20 -8 13 -23 14 -30 3z"/>
<path d="M2021 4271 c-9 -6 -10 -11 -2 -15 6 -4 11 -35 11 -72 0 -35 4 -64 9
-64 6 0 8 16 7 35 -2 19 -1 35 3 35 10 0 7 68 -4 79 -6 6 -16 7 -24 2z"/>
<path d="M681 4304 c0 -11 3 -14 6 -6 3 7 2 16 -1 19 -3 4 -6 -2 -5 -13z"/>
<path d="M648 3373 c7 -3 16 -2 19 1 4 3 -2 6 -13 5 -11 0 -14 -3 -6 -6z"/>
<path d="M906 3230 c7 -7 19 -7 35 -1 23 9 22 10 -10 10 -24 1 -32 -2 -25 -9z"/>
<path d="M2535 3120 c-3 -5 -1 -10 4 -10 6 0 11 5 11 10 0 6 -2 10 -4 10 -3 0
-8 -4 -11 -10z"/>
<path d="M2559 3101 c-13 -13 -14 -18 -5 -27 10 -9 15 -7 23 6 16 24 2 41 -18
21z"/>
<path d="M748 2865 c5 -30 17 -32 31 -6 8 15 7 20 -5 25 -27 10 -31 7 -26 -19z"/>
<path d="M632 2670 c10 -6 31 -7 55 -1 38 9 38 9 -17 10 -40 0 -50 -2 -38 -9z"/>
<path d="M760 2676 c0 -9 40 -13 46 -5 3 5 -6 9 -20 9 -14 0 -26 -2 -26 -4z"/>
<path d="M910 2670 c0 -5 16 -10 36 -10 21 0 33 4 29 10 -3 6 -19 10 -36 10
-16 0 -29 -4 -29 -10z"/>
<path d="M2710 6131 c0 -17 12 -41 21 -41 5 0 9 11 9 25 0 16 -6 25 -15 25 -8
0 -15 -4 -15 -9z"/>
<path d="M4258 6133 c12 -2 32 -2 45 0 12 2 2 4 -23 4 -25 0 -35 -2 -22 -4z"/>
<path d="M3390 6116 c0 -9 5 -16 10 -16 6 0 10 4 10 9 0 6 -4 13 -10 16 -5 3
-10 -1 -10 -9z"/>
<path d="M5261 6043 c-1 -24 -5 -43 -11 -43 -5 0 -10 -4 -10 -10 0 -17 19 -11
30 10 7 13 7 31 1 52 l-9 33 -1 -42z"/>
<path d="M2665 6050 c3 -5 8 -10 11 -10 2 0 4 5 4 10 0 6 -5 10 -11 10 -5 0
-7 -4 -4 -10z"/>
<path d="M2780 6040 c0 -17 63 -130 72 -130 13 0 9 16 -18 69 -28 54 -54 83
-54 61z"/>
<path d="M3480 6040 c0 -5 5 -10 11 -10 5 0 7 5 4 10 -3 6 -8 10 -11 10 -2 0
-4 -4 -4 -10z"/>
<path d="M5102 6020 c0 -14 2 -19 5 -12 2 6 2 18 0 25 -3 6 -5 1 -5 -13z"/>
<path d="M3480 6014 c0 -22 36 -61 56 -61 37 0 29 20 -18 50 -29 18 -38 21
-38 11z"/>
<path d="M2430 5988 c0 -21 0 -21 -14 -2 -16 21 -33 14 -20 -8 11 -17 5 -120
-8 -135 -8 -10 -6 -13 6 -13 13 0 16 11 16 60 0 48 3 60 16 60 10 0 13 -6 9
-19 -3 -10 1 -24 10 -31 8 -7 15 -9 15 -4 0 5 5 2 10 -6 7 -11 8 -5 5 19 -2
19 -9 39 -14 44 -16 16 -13 30 4 23 8 -3 15 -1 15 4 0 6 -7 10 -15 10 -8 0
-15 5 -15 10 0 6 -4 10 -10 10 -5 0 -10 -10 -10 -22z"/>
<path d="M4212 5975 c0 -16 2 -22 5 -12 2 9 2 23 0 30 -3 6 -5 -1 -5 -18z"/>
<path d="M5553 5988 c-17 -23 -63 -125 -63 -139 1 -8 13 9 27 36 46 88 64 139
36 103z"/>
<path d="M2932 5943 c14 -51 26 -73 59 -107 35 -36 44 -30 30 19 -10 36 -74
125 -91 125 -5 0 -4 -17 2 -37z"/>
<path d="M3858 5973 c12 -2 32 -2 45 0 12 2 2 4 -23 4 -25 0 -35 -2 -22 -4z"/>
<path d="M5777 5875 c-49 -110 -60 -151 -27 -100 25 39 82 184 78 196 -2 6
-25 -37 -51 -96z"/>
<path d="M3276 5943 c-19 -62 62 -215 159 -301 55 -48 75 -46 75 9 0 90 -65
199 -168 282 -40 31 -58 34 -66 10z"/>
<path d="M3720 5951 c0 -6 4 -11 9 -11 5 0 16 -6 23 -12 8 -7 23 -18 33 -24
11 -6 30 -17 43 -25 18 -11 26 -11 42 -1 11 6 26 12 35 12 8 0 19 9 25 19 14
26 13 34 -4 28 -7 -3 -17 -2 -22 3 -15 13 -184 24 -184 11z"/>
<path d="M4000 5951 c0 -5 9 -7 20 -4 11 3 20 7 20 9 0 2 -9 4 -20 4 -11 0
-20 -4 -20 -9z"/>
<path d="M2200 5926 c0 -9 5 -16 10 -16 6 0 10 4 10 9 0 6 -4 13 -10 16 -5 3
-10 -1 -10 -9z"/>
<path d="M5725 5920 c-12 -19 -75 -184 -71 -187 5 -6 55 101 70 150 14 46 14
58 1 37z"/>
<path d="M327 5889 c7 -7 15 -10 18 -7 3 3 -2 9 -12 12 -14 6 -15 5 -6 -5z"/>
<path d="M2330 5886 c0 -8 5 -18 10 -21 6 -3 10 3 10 14 0 12 -4 21 -10 21 -5
0 -10 -6 -10 -14z"/>
<path d="M3083 5861 c16 -76 106 -206 128 -184 22 22 -57 168 -110 202 l-24
16 6 -34z"/>
<path d="M2 5853 c3 -27 6 -28 67 -35 35 -4 67 -11 70 -15 3 -4 26 -9 51 -11
24 -2 47 -8 51 -13 4 -8 9 -7 14 1 5 8 22 10 49 6 51 -7 79 6 47 23 -12 7 -26
9 -31 6 -5 -3 -19 -1 -32 6 -28 15 -117 36 -193 44 -33 4 -68 9 -78 12 -15 4
-18 0 -15 -24z"/>
<path d="M2435 5870 c-3 -5 -1 -10 4 -10 6 0 11 5 11 10 0 6 -2 10 -4 10 -3 0
-8 -4 -11 -10z"/>
<path d="M3470 5864 c0 -8 5 -12 10 -9 6 4 8 11 5 16 -9 14 -15 11 -15 -7z"/>
<path d="M2231 5854 c0 -11 3 -14 6 -6 3 7 2 16 -1 19 -3 4 -6 -2 -5 -13z"/>
<path d="M2441 5804 c0 -11 3 -14 6 -6 3 7 2 16 -1 19 -3 4 -6 -2 -5 -13z"/>
<path d="M3630 5815 c1 -6 7 -21 16 -35 l15 -25 -7 25 c-7 26 -24 52 -24 35z"/>
<path d="M5602 5808 c-13 -16 -42 -97 -42 -118 0 -23 16 3 40 69 21 54 22 72
2 49z"/>
<path d="M6200 5809 c-20 -4 -26 -7 -14 -8 12 0 21 -7 20 -13 0 -7 4 -14 9
-15 6 -2 10 3 10 10 0 6 4 15 10 19 16 11 2 14 -35 7z"/>
<path d="M8 5803 c7 -3 16 -2 19 1 4 3 -2 6 -13 5 -11 0 -14 -3 -6 -6z"/>
<path d="M2535 5801 c-3 -5 -1 -12 5 -16 5 -3 10 1 10 9 0 18 -6 21 -15 7z"/>
<path d="M2602 5774 c3 -37 5 -39 48 -46 25 -4 49 -7 53 -5 14 4 -56 75 -81
82 -22 6 -23 4 -20 -31z"/>
<path d="M2716 5793 c-12 -12 -6 -33 9 -33 8 0 15 6 15 14 0 17 -14 28 -24 19z"/>
<path d="M35 5761 c-3 -6 2 -11 11 -11 10 0 14 -3 11 -7 -10 -9 23 -43 43 -43
9 0 21 -5 28 -12 9 -9 12 -9 12 0 0 7 -4 12 -9 12 -5 0 -8 10 -7 23 2 20 -1
23 -21 19 -22 -4 -22 -5 -6 -19 16 -13 16 -13 -5 -3 -13 6 -21 18 -20 28 3 18
-27 29 -37 13z"/>
<path d="M2140 5760 c0 -5 5 -10 10 -10 6 0 10 5 10 10 0 6 -4 10 -10 10 -5 0
-10 -4 -10 -10z"/>
<path d="M2827 5764 c-10 -11 4 -58 21 -71 9 -7 34 -13 56 -13 l40 0 -47 45
c-48 45 -58 51 -70 39z"/>
<path d="M2511 5744 c0 -11 3 -14 6 -6 3 7 2 16 -1 19 -3 4 -6 -2 -5 -13z"/>
<path d="M2966 5742 c-2 -4 -1 -14 5 -22 7 -12 9 -10 9 8 0 23 -5 28 -14 14z"/>
<path d="M3670 5741 c0 -13 48 -61 62 -61 5 0 1 8 -9 18 -11 9 -27 25 -36 35
-10 10 -17 14 -17 8z"/>
<path d="M4090 5690 c-9 -6 -10 -10 -3 -10 6 0 15 5 18 10 8 12 4 12 -15 0z"/>
<path d="M2632 5663 c20 -46 62 -103 73 -99 6 2 19 -4 29 -13 14 -12 20 -13
23 -4 3 9 10 10 24 3 16 -9 19 -7 19 15 0 45 -44 107 -77 111 -10 1 -37 5 -61
9 l-42 8 12 -30z"/>
<path d="M3054 5678 c-8 -13 22 -38 48 -38 25 0 22 15 -7 34 -29 19 -32 19
-41 4z"/>
<path d="M4051 5638 c-1 -37 3 -48 14 -48 8 0 15 -5 15 -11 0 -5 5 -7 10 -4 6
3 10 16 9 28 0 12 -3 16 -6 10 -9 -25 -22 -13 -31 30 l-10 42 -1 -47z"/>
<path d="M3580 5589 c0 -26 20 -46 51 -51 13 -1 27 -7 31 -13 5 -6 8 -4 8 6 0
18 -60 79 -78 79 -7 0 -12 -9 -12 -21z"/>
<path d="M3790 5573 c1 -5 7 -19 14 -32 11 -20 14 -21 19 -6 4 9 1 23 -7 31
-16 15 -26 18 -26 7z"/>
<path d="M3310 5506 c0 -19 6 -25 29 -28 34 -5 32 12 -5 37 -23 15 -24 15 -24
-9z"/>
<path d="M3610 5510 c0 -22 96 -130 116 -130 8 0 14 10 14 23 -1 29 -36 107
-50 107 -15 0 -16 0 -50 10 -26 7 -30 6 -30 -10z"/>
<path d="M2607 5484 c-8 -14 8 -37 22 -33 8 3 8 10 -2 23 -8 11 -17 15 -20 10z"/>
<path d="M3860 5455 c7 -8 20 -15 28 -15 13 0 12 3 -4 15 -25 19 -40 19 -24 0z"/>
<path d="M3820 5312 c0 -4 13 -28 28 -53 16 -24 29 -47 30 -51 3 -14 17 -9 20
7 4 20 -34 82 -59 95 -10 6 -19 7 -19 2z"/>
<path d="M3710 5233 c0 -42 84 -153 102 -135 14 14 -37 107 -74 133 -27 19
-28 19 -28 2z"/>
<path d="M253 5043 c9 -2 23 -2 30 0 6 3 -1 5 -18 5 -16 0 -22 -2 -12 -5z"/>
<path d="M320 5040 c0 -6 10 -15 23 -19 12 -5 38 -24 57 -42 19 -18 27 -30 18
-26 -10 3 -18 3 -18 -2 0 -18 15 -20 38 -5 29 19 45 8 18 -12 -16 -11 -17 -14
-4 -14 8 0 21 -7 28 -15 7 -9 19 -14 25 -11 7 2 18 -1 24 -7 8 -8 15 -6 25 9
15 19 15 19 10 -2 -7 -27 27 -34 106 -24 30 4 45 8 33 9 -20 1 -23 7 -23 41 0
29 -4 40 -15 40 -11 0 -15 8 -13 26 2 20 -2 28 -17 30 -11 2 -41 6 -68 10 -26
4 -50 11 -53 15 -8 13 -194 11 -194 -1z m230 -87 c0 -10 -4 -14 -8 -8 -4 6
-11 13 -16 18 -5 4 -2 7 7 7 10 0 17 -8 17 -17z m37 1 c-3 -3 -12 -4 -19 -1
-8 3 -5 6 6 6 11 1 17 -2 13 -5z m-57 -26 c0 -16 -3 -19 -11 -11 -6 6 -8 16
-5 22 11 17 16 13 16 -11z m-32 -6 c2 -7 -2 -10 -12 -6 -9 3 -16 11 -16 16 0
13 23 5 28 -10z"/>
<path d="M240 4990 c0 -5 18 -10 40 -10 22 0 40 5 40 10 0 6 -18 10 -40 10
-22 0 -40 -4 -40 -10z"/>
<path d="M230 4935 c0 -28 6 -30 44 -15 28 10 35 30 11 30 -8 0 -15 -4 -15
-10 0 -5 -7 -10 -15 -10 -18 0 -20 16 -2 23 7 3 5 6 -5 6 -13 1 -18 -7 -18
-24z"/>
<path d="M372 4944 c-7 -8 -8 -14 -3 -14 10 0 25 19 20 25 -2 1 -10 -3 -17
-11z"/>
<path d="M328 4913 c6 -2 18 -2 25 0 6 3 1 5 -13 5 -14 0 -19 -2 -12 -5z"/>
<path d="M4563 4759 c-18 -5 -33 -14 -33 -19 0 -11 -54 -65 -87 -87 -12 -8
-28 -11 -34 -7 -8 5 -9 3 -3 -7 4 -8 7 -56 6 -108 -3 -97 10 -156 33 -147 7 2
21 -1 31 -9 11 -7 38 -16 62 -20 23 -4 42 -10 42 -15 0 -4 -10 -6 -21 -3 -15
4 -20 2 -17 -7 2 -7 22 -13 45 -14 29 -2 40 1 36 10 -3 7 -11 10 -19 7 -8 -3
-14 0 -14 5 0 6 21 14 48 18 26 3 53 12 61 18 12 9 13 7 7 -9 -5 -14 -4 -17 3
-9 18 17 51 122 45 138 -3 9 2 35 11 60 16 42 16 46 -1 78 -11 18 -25 39 -31
46 -7 7 -13 19 -13 27 0 14 -91 66 -112 64 -7 0 -28 -5 -45 -10z m143 -260 c6
-5 14 -6 17 -2 4 3 7 2 7 -3 0 -16 -52 -61 -79 -69 -35 -11 -97 -8 -123 6 -36
18 -68 51 -67 68 0 10 3 11 5 4 4 -9 12 -9 32 -1 67 26 172 25 208 -3z"/>
<path d="M53 4744 c3 -4 41 -8 84 -10 54 -2 69 0 48 5 -36 10 -141 14 -132 5z"/>
<path d="M350 4719 c0 -6 26 -12 120 -26 19 -3 37 -9 40 -13 9 -14 85 -16 83
-2 -4 15 -2 15 32 2 14 -5 24 -6 21 -1 -4 5 0 11 6 14 14 5 -42 12 -200 24
-56 4 -102 5 -102 2z"/>
<path d="M3680 4725 c0 -3 7 -20 16 -37 12 -23 13 -32 4 -38 -8 -5 0 -11 19
-18 46 -16 52 9 14 55 -27 34 -53 53 -53 38z"/>
<path d="M3857 4659 c22 -38 43 -57 43 -39 0 21 -34 70 -48 70 -10 0 -9 -7 5
-31z"/>
<path d="M3970 4498 c0 -8 9 -23 20 -33 16 -15 20 -15 20 -3 0 8 -9 23 -20 33
-16 15 -20 15 -20 3z"/>
<path d="M455 4470 c-3 -5 -1 -10 4 -10 6 0 11 5 11 10 0 6 -2 10 -4 10 -3 0
-8 -4 -11 -10z"/>
<path d="M3865 4456 c3 -16 17 -43 31 -59 24 -28 24 -28 24 -5 0 13 -14 39
-31 58 l-30 35 6 -29z"/>
<path d="M533 4463 c8 -13 77 -23 77 -11 0 4 -11 8 -24 8 -13 0 -32 3 -42 7
-11 4 -15 3 -11 -4z"/>
<path d="M500 4449 c0 -5 5 -7 10 -4 6 3 10 8 10 11 0 2 -4 4 -10 4 -5 0 -10
-5 -10 -11z"/>
<path d="M380 4430 c0 -5 5 -10 11 -10 5 0 7 5 4 10 -3 6 -8 10 -11 10 -2 0
-4 -4 -4 -10z"/>
<path d="M3750 4433 c2 -24 79 -133 94 -133 12 0 5 32 -11 58 -38 58 -84 100
-83 75z"/>
<path d="M337 4423 c-13 -12 -7 -21 21 -31 21 -8 23 -11 7 -12 -17 -1 -16 -3
8 -16 16 -9 31 -13 35 -10 3 3 0 6 -6 6 -7 0 -12 9 -12 20 0 13 -7 20 -20 20
-13 0 -18 5 -14 15 6 15 -7 21 -19 8z"/>
<path d="M410 4426 c0 -2 7 -7 16 -10 8 -3 12 -2 9 4 -6 10 -25 14 -25 6z"/>
<path d="M264 4399 c-5 -9 -2 -10 9 -6 12 4 17 1 18 -11 0 -9 3 -12 5 -6 3 7
15 10 27 7 17 -3 18 -2 7 5 -29 18 -58 23 -66 11z"/>
<path d="M3667 4383 c-10 -10 39 -97 72 -125 36 -33 41 -34 41 -10 0 37 -96
152 -113 135z"/>
<path d="M218 4373 c6 -2 18 -2 25 0 6 3 1 5 -13 5 -14 0 -19 -2 -12 -5z"/>
<path d="M260 4370 c0 -5 5 -10 11 -10 5 0 7 5 4 10 -3 6 -8 10 -11 10 -2 0
-4 -4 -4 -10z"/>
<path d="M6660 4359 c-41 -25 -51 -38 -83 -104 -34 -69 -49 -182 -33 -234 6
-16 5 -21 -3 -17 -6 4 7 -20 29 -52 38 -57 79 -92 128 -107 22 -6 22 -5 21 72
-1 79 -15 167 -18 113 -2 -39 -15 -54 -31 -36 -7 9 -10 22 -7 30 3 8 -1 17 -9
20 -10 4 -14 23 -14 66 0 66 25 131 60 152 16 10 20 24 20 65 0 60 -7 64 -60
32z"/>
<path d="M201 4356 c9 -10 59 -14 54 -5 -4 5 -18 9 -32 9 -15 0 -24 -2 -22 -4z"/>
<path d="M270 4341 c0 -5 5 -13 10 -16 6 -3 10 -2 10 4 0 5 -4 13 -10 16 -5 3
-10 2 -10 -4z"/>
<path d="M5097 4299 c-28 -51 -33 -69 -18 -69 7 0 53 111 48 116 -1 1 -14 -20
-30 -47z"/>
<path d="M4140 4331 c0 -6 4 -13 10 -16 6 -3 7 1 4 9 -7 18 -14 21 -14 7z"/>
<path d="M4517 4316 c4 -8 6 -119 3 -246 -3 -128 -2 -234 3 -237 4 -2 8 58 8
134 1 76 3 179 5 228 3 99 -1 135 -17 135 -6 0 -7 -6 -2 -14z"/>
<path d="M3580 4300 c0 -28 40 -88 83 -127 41 -37 47 -39 47 -18 0 29 -38 91
-79 128 -47 43 -51 44 -51 17z"/>
<path d="M6460 4312 c0 -5 7 -9 15 -9 8 0 12 4 9 9 -3 4 -9 8 -15 8 -5 0 -9
-4 -9 -8z"/>
<path d="M4612 4250 c0 -14 2 -19 5 -12 2 6 2 18 0 25 -3 6 -5 1 -5 -13z"/>
<path d="M4723 4253 c9 -2 25 -2 35 0 9 3 1 5 -18 5 -19 0 -27 -2 -17 -5z"/>
<path d="M4800 4250 c0 -5 5 -10 10 -10 6 0 10 5 10 10 0 6 -4 10 -10 10 -5 0
-10 -4 -10 -10z"/>
<path d="M4905 4240 c71 -11 156 -11 130 0 -11 5 -56 8 -100 8 -75 -1 -77 -1
-30 -8z"/>
<path d="M7 4229 c7 -7 15 -10 18 -7 3 3 -2 9 -12 12 -14 6 -15 5 -6 -5z"/>
<path d="M4045 4170 c9 -34 65 -92 65 -67 0 9 -16 34 -36 55 -32 33 -35 35
-29 12z"/>
<path d="M310 4159 c-100 -28 -118 -39 -123 -77 -4 -37 3 -62 18 -65 5 -1 9
-28 11 -59 2 -51 0 -58 -15 -58 -23 0 -55 63 -48 96 2 13 1 24 -3 24 -4 0 -22
29 -40 65 -18 36 -35 66 -39 66 -41 7 -71 7 -71 -1 0 -6 11 -10 24 -10 26 0
39 -20 30 -47 -5 -14 -4 -15 4 -4 8 11 11 9 17 -8 4 -13 4 -25 1 -28 -3 -4 3
-12 13 -19 22 -16 46 -103 38 -140 -6 -33 31 -50 77 -34 34 11 145 30 189 33
30 2 32 9 16 56 -9 24 -8 39 2 64 22 52 18 71 -16 77 -31 5 -33 13 -19 58 7
25 -6 27 -66 11z m14 -85 c9 -25 2 -26 -17 -4 -13 16 -14 20 -3 20 8 0 17 -7
20 -16z"/>
<path d="M6672 4100 c0 -14 2 -19 5 -12 2 6 2 18 0 25 -3 6 -5 1 -5 -13z"/>
<path d="M8 4104 c-3 -5 3 -18 13 -28 22 -22 26 -9 6 19 -8 10 -16 14 -19 9z"/>
<path d="M4020 4081 c0 -7 7 -26 16 -43 15 -30 15 -32 -2 -45 -16 -11 -11 -13
35 -13 l52 0 -22 33 c-25 34 -34 44 -62 66 -12 9 -17 10 -17 2z"/>
<path d="M5758 4083 c6 -2 18 -2 25 0 6 3 1 5 -13 5 -14 0 -19 -2 -12 -5z"/>
<path d="M5662 4064 c9 -9 21 -13 27 -10 20 13 11 26 -16 26 -25 0 -26 -1 -11
-16z"/>
<path d="M4879 4034 c-43 -22 -47 -64 -4 -48 14 6 40 52 33 60 -2 1 -15 -4
-29 -12z"/>
<path d="M6682 4020 c0 -14 2 -19 5 -12 2 6 2 18 0 25 -3 6 -5 1 -5 -13z"/>
<path d="M4148 3993 c7 -3 16 -2 19 1 4 3 -2 6 -13 5 -11 0 -14 -3 -6 -6z"/>
<path d="M3626 3960 c22 -22 29 -24 126 -35 47 -4 71 -12 78 -23 10 -18 9 -20
14 41 1 8 -15 11 -54 9 -32 -2 -73 3 -99 12 -24 9 -53 16 -64 16 l-21 0 20
-20z"/>
<path d="M4826 3962 c-3 -5 -12 -29 -20 -53 -18 -53 -85 -169 -98 -169 -4 0
-8 -5 -8 -11 0 -6 12 -9 27 -7 22 2 29 10 36 41 5 20 13 37 19 37 5 0 7 9 3
19 -3 11 -1 22 5 26 5 3 10 1 10 -4 0 -6 4 -11 8 -11 12 0 64 119 57 130 -8
12 -32 13 -39 2z"/>
<path d="M4030 3942 c0 -26 59 -105 93 -124 17 -9 17 -8 4 19 -20 38 -96 121
-97 105z"/>
<path d="M3846 3867 c3 -10 9 -15 12 -12 3 3 0 11 -7 18 -10 9 -11 8 -5 -6z"/>
<path d="M3860 3821 c0 -5 7 -14 15 -21 16 -14 18 -10 9 14 -6 17 -24 22 -24
7z"/>
<path d="M4518 3808 c-9 -73 -12 -277 -4 -285 3 -4 6 23 6 58 0 35 3 103 7
152 3 48 3 87 -1 87 -3 0 -7 -6 -8 -12z"/>
<path d="M4006 3646 c3 -9 13 -16 22 -16 8 0 13 1 11 3 -2 1 -12 9 -22 16 -15
12 -17 12 -11 -3z"/>
<path d="M4502 3435 l1 -80 7 60 c4 32 4 68 0 80 -6 13 -8 -9 -8 -60z"/>
<path d="M4501 3334 c0 -11 3 -14 6 -6 3 7 2 16 -1 19 -3 4 -6 -2 -5 -13z"/>
<path d="M6240 3204 c14 -1 102 -8 195 -14 94 -6 196 -13 228 -16 46 -5 57 -3
57 9 0 8 -7 18 -16 21 -9 3 -122 5 -252 5 -130 -1 -226 -3 -212 -5z"/>
<path d="M6660 3130 c0 -5 14 -10 30 -10 17 0 30 5 30 10 0 6 -13 10 -30 10
-16 0 -30 -4 -30 -10z"/>
<path d="M6398 3083 c12 -2 30 -2 40 0 9 3 -1 5 -23 4 -22 0 -30 -2 -17 -4z"/>
<path d="M6550 3080 l-75 -5 119 -8 c105 -7 139 -5 125 7 -9 7 -97 11 -169 6z"/>
<path d="M6433 3023 c7 -6 34 -9 192 -19 65 -4 96 -2 90 4 -5 5 -72 12 -149
16 -76 3 -136 3 -133 -1z"/>
<path d="M6408 2963 c6 -2 18 -2 25 0 6 3 1 5 -13 5 -14 0 -19 -2 -12 -5z"/>
<path d="M6490 2960 c-11 -7 -3 -10 30 -9 34 0 40 2 25 9 -27 12 -37 12 -55 0z"/>
<path d="M5780 2950 c0 -5 12 -10 28 -10 21 0 24 2 12 10 -20 13 -40 13 -40 0z"/>
<path d="M6578 2953 c6 -2 18 -2 25 0 6 3 1 5 -13 5 -14 0 -19 -2 -12 -5z"/>
<path d="M5868 2943 c17 -2 47 -2 65 0 17 2 3 4 -33 4 -36 0 -50 -2 -32 -4z"/>
<path d="M5460 2910 c0 -16 0 -33 -1 -37 0 -4 4 -9 9 -11 5 -1 9 15 9 38 0 22
-4 40 -8 40 -5 0 -9 -13 -9 -30z"/>
<path d="M6025 2930 c28 -5 88 -12 135 -15 47 -3 147 -12 222 -21 127 -14 261
-14 274 -1 4 3 -2 6 -12 6 -11 0 -104 7 -209 15 -256 19 -476 28 -410 16z"/>
<path d="M5570 2921 c0 -6 5 -13 10 -16 6 -3 10 1 10 9 0 9 -4 16 -10 16 -5 0
-10 -4 -10 -9z"/>
<path d="M5640 2910 c0 -5 14 -10 31 -10 17 0 28 4 24 10 -3 6 -17 10 -31 10
-13 0 -24 -4 -24 -10z"/>
<path d="M5945 2879 c99 -11 232 -23 295 -28 118 -10 327 -14 319 -7 -2 2 -83
9 -179 16 -96 6 -250 17 -342 25 -238 21 -307 16 -93 -6z"/>
<path d="M360 2144 l0 -31 -72 -2 c-40 0 -121 -3 -180 -7 l-108 -7 0 -256 0
-256 122 3 c68 1 215 9 328 17 113 8 253 17 313 21 59 3 107 9 107 12 0 4 -4
13 -9 21 -5 8 -5 27 0 45 5 17 12 59 15 94 5 52 3 62 -10 62 -18 0 -40 -36
-31 -50 10 -16 -35 -27 -95 -25 -59 2 -70 -5 -70 -46 0 -29 -27 -46 -44 -29
-8 8 -7 13 1 18 8 5 9 13 3 22 -14 22 -12 27 18 39 21 9 28 18 27 38 0 22 6
28 33 35 33 9 41 25 20 46 -19 19 -2 25 75 27 l72 1 7 55 c13 97 15 95 -117
103 -64 4 -143 4 -175 0 -41 -4 -64 -3 -74 6 -8 6 -25 10 -38 9 -13 -2 -28 0
-35 4 -6 4 -23 3 -37 -3 -23 -8 -26 -7 -26 13 0 12 -5 29 -10 37 -7 11 -10 8
-10 -16z m500 -77 c0 -5 -9 -11 -21 -14 -14 -4 -18 -11 -13 -22 17 -43 17 -53
-2 -49 -10 2 -19 8 -20 13 -2 24 -25 65 -35 65 -7 0 -20 -7 -30 -16 -10 -9
-33 -19 -50 -23 -44 -9 -47 -28 -7 -40 24 -7 27 -9 11 -10 -12 -1 -34 4 -49 9
-24 10 -25 12 -10 23 14 10 15 15 4 30 -11 14 -21 16 -68 8 -34 -6 -59 -6 -65
0 -20 20 21 28 139 28 65 1 121 3 123 5 8 8 93 1 93 -7z m-390 -74 c0 -15 -2
-15 -24 -7 -22 9 -20 20 4 20 11 0 20 -6 20 -13z m119 -8 c-10 -10 -22 -13
-35 -8 -17 6 -17 8 6 14 40 11 45 10 29 -6z m-54 -23 c-2 -2 -14 0 -27 4 -22
7 -22 7 -3 14 17 6 41 -8 30 -18z m155 -51 c0 -11 -5 -23 -11 -27 -15 -9 -33
12 -26 30 9 23 37 20 37 -3z m-245 0 c-14 -12 -75 -22 -75 -12 0 15 14 21 49
21 20 0 31 -4 26 -9z m390 -231 c4 -6 -7 -10 -27 -10 -25 0 -29 3 -18 10 19
13 37 13 45 0z m-205 -20 c0 -5 -7 -10 -15 -10 -8 0 -15 5 -15 10 0 6 7 10 15
10 8 0 15 -4 15 -10z m53 3 c-7 -2 -21 -2 -30 0 -10 3 -4 5 12 5 17 0 24 -2
18 -5z m-523 -31 c0 -14 -11 -21 -26 -15 -8 3 -11 9 -8 14 7 11 34 12 34 1z"/>
<path d="M4916 1898 c-3 -13 -5 -32 -5 -43 1 -11 5 -2 10 19 10 42 6 62 -5 24z"/>
<path d="M4896 1802 c-4 -13 -5 -26 -2 -29 10 -11 18 4 14 29 l-4 23 -8 -23z"/>
<path d="M4885 1734 c-4 -16 -11 -42 -16 -58 -5 -16 -9 -38 -8 -50 0 -21 1
-21 9 -1 14 35 32 126 27 132 -4 3 -9 -8 -12 -23z"/>
<path d="M5640 1629 c0 -5 5 -7 10 -4 6 3 10 8 10 11 0 2 -4 4 -10 4 -5 0 -10
-5 -10 -11z"/>
<path d="M6690 1585 c-10 -12 -10 -15 3 -15 8 0 17 7 21 15 3 8 2 15 -3 15 -5
0 -14 -7 -21 -15z"/>
<path d="M4582 1443 c-93 -290 -112 -354 -112 -373 0 -12 -5 -31 -11 -43 -8
-15 -8 -19 -1 -12 11 10 102 264 102 284 0 5 14 49 31 96 25 70 34 84 44 73 6
-7 35 -85 63 -173 78 -247 149 -477 157 -505 3 -14 10 -34 15 -45 5 -11 16
-51 26 -90 9 -38 21 -75 27 -82 5 -7 6 -16 3 -22 -3 -5 1 -12 10 -15 13 -5 15
-2 10 16 -4 13 -18 61 -31 108 -13 47 -47 159 -76 250 -28 91 -56 188 -62 215
-6 28 -14 52 -17 55 -4 3 -18 41 -33 85 -83 250 -100 300 -102 303 -1 1 -20
-55 -43 -125z"/>
<path d="M4815 1448 c-17 -68 -30 -132 -30 -143 0 -11 -4 -26 -9 -33 -4 -7 -5
-16 -2 -19 3 -3 1 -12 -5 -19 -6 -8 -7 -19 -2 -28 9 -16 66 212 80 317 10 81
-2 52 -32 -75z"/>
<path d="M5632 1420 l1 -105 7 90 c4 50 3 97 -1 105 -5 8 -8 -32 -7 -90z"/>
<path d="M6283 1399 c-30 -11 -29 -14 7 -17 17 -1 30 2 30 7 0 16 -13 19 -37
10z"/>
<path d="M5620 1266 c0 -20 2 -36 4 -36 8 0 12 61 4 66 -4 3 -8 -11 -8 -30z"/>
<path d="M6149 1197 c-152 -114 -208 -158 -214 -168 -4 -5 -30 -27 -58 -48
-75 -56 -101 -80 -94 -88 4 -3 15 0 24 8 10 9 61 51 113 95 52 44 126 103 164
133 38 29 78 61 90 71 11 10 32 28 46 39 55 45 8 17 -71 -42z"/>
<path d="M5622 1180 c0 -19 2 -27 5 -17 2 9 2 25 0 35 -3 9 -5 1 -5 -18z"/>
<path d="M5961 1106 c-7 -9 -19 -16 -26 -16 -8 0 -15 -4 -17 -8 -1 -5 -30 -30
-63 -57 l-59 -48 -8 32 c-12 45 -20 38 -13 -11 l6 -43 -82 -73 c-45 -39 -83
-71 -83 -70 -1 2 1 69 4 150 3 81 2 144 -2 140 -4 -4 -8 -63 -9 -132 -3 -143
-9 -179 -35 -207 -83 -88 -119 -128 -175 -198 -35 -44 -75 -95 -87 -112 l-23
-33 26 -10 c34 -13 45 -13 45 1 0 10 22 38 102 134 41 49 60 70 183 199 72 76
129 143 127 150 -2 12 51 66 167 169 23 21 41 43 39 49 -2 6 -9 3 -17 -6z"/>
<path d="M4441 974 c0 -11 3 -14 6 -6 3 7 2 16 -1 19 -3 4 -6 -2 -5 -13z"/>
<path d="M6665 640 c-7 -12 12 -12 40 0 18 8 17 9 -7 9 -15 1 -30 -3 -33 -9z"/>
<path d="M6465 498 c-22 -12 -63 -38 -92 -59 -29 -22 -56 -39 -62 -39 -5 0
-12 -6 -14 -12 -4 -10 -8 -9 -16 2 -9 12 -11 11 -11 -8 0 -14 -9 -27 -25 -34
-14 -6 -25 -15 -25 -20 0 -4 -6 -8 -14 -8 -8 0 -16 -4 -18 -8 -3 -9 -93 -72
-103 -72 -3 0 -11 -5 -18 -10 -7 -6 -41 -29 -76 -51 -56 -36 -70 -40 -105 -35
-48 6 -65 10 -86 18 -83 33 -96 28 -59 -23 12 -17 23 -52 26 -84 l6 -54 474
-1 473 0 -2 202 -3 202 -90 47 c-49 26 -95 52 -102 58 -15 13 -10 14 -58 -11z
m14 -50 c-7 -13 -11 -24 -10 -26 6 -7 -13 -70 -30 -98 -10 -17 -19 -39 -19
-48 0 -17 -16 -22 -22 -7 -6 17 -48 -8 -48 -29 0 -11 -7 -20 -15 -20 -8 0 -15
-5 -15 -11 0 -5 -4 -7 -10 -4 -5 3 -10 37 -10 75 0 65 2 71 28 87 15 10 53 37
86 60 65 48 82 53 65 21z"/>
<path d="M4310 90 l0 -90 102 0 103 0 -67 45 c-36 24 -81 65 -99 90 -18 25
-34 45 -36 45 -2 0 -3 -40 -3 -90z"/>
</g>
</svg>
